<svg xmlns="http://www.w3.org/2000/svg" viewBox="0 0 500 500"><g id="freepik--Rocket--inject-190"><g id="freepik--rocket--inject-190"><g id="freepik--Smoke--inject-190"><ellipse cx="282.65" cy="383.37" rx="58.18" ry="23.85" style="fill:#BA68C8"></ellipse><ellipse cx="282.65" cy="383.37" rx="58.18" ry="23.85" style="fill:#BA68C8"></ellipse><ellipse cx="282.65" cy="383.37" rx="58.18" ry="23.85" style="fill:#fff;opacity:0.9"></ellipse><path d="M223.39,371.05a25.85,25.85,0,0,1,51.69,0c0,.25,0,.47,0,.72s0,.47,0,.72c-.3,3.58-2.82,7.09-7.57,9.84-10.08,5.83-26.47,5.83-36.58,0-4.72-2.75-7.25-6.26-7.54-9.84,0-.25,0-.47,0-.72S223.37,371.3,223.39,371.05Z" style="fill:#BA68C8"></path><path d="M223.39,371.05a25.85,25.85,0,0,1,51.69,0c0,.25,0,.47,0,.72s0,.47,0,.72c-.3,3.58-2.82,7.09-7.57,9.84-10.08,5.83-26.47,5.83-36.58,0-4.72-2.75-7.25-6.26-7.54-9.84,0-.25,0-.47,0-.72S223.37,371.3,223.39,371.05Z" style="fill:#fff;opacity:0.8"></path><path d="M238,348.49h0a25.8,25.8,0,0,1,37.06,22.56c0,.25,0,.47,0,.72s0,.47,0,.72c-.3,3.58-2.82,7.09-7.57,9.84a34.28,34.28,0,0,1-13,4c6.71-1.15,11-8.64,9-16.91C261.13,359.87,251.44,346,238,348.49Z" style="fill:#fff;opacity:0.30000000000000004;mix-blend-mode:lighten"></path><path d="M223.39,372.49c0-.25,0-.47,0-.72s0-.47,0-.72a25.69,25.69,0,0,1,8.78-18.68c-2.81,2.88-9.06,13.77-2.27,22.06,4.47,5.46,25.66,13.25,43.1,3.24a18,18,0,0,1-5.49,4.66c-10.08,5.83-26.47,5.83-36.58,0C226.21,379.58,223.68,376.07,223.39,372.49Z" style="fill:#BA68C8;opacity:0.1"></path><path d="M249.5,351.73c-1.16,2.64,1.06,6.16,5,7.87s8,1,9.16-1.67-1.07-6.16-5-7.87S250.65,349.1,249.5,351.73Z" style="fill:#fff;opacity:0.5;mix-blend-mode:lighten"></path><path d="M264.47,362.46c-.6,1.37.27,3.08,2,3.82s3.53.23,4.13-1.15-.27-3.08-1.95-3.82S265.07,361.09,264.47,362.46Z" style="fill:#fff;opacity:0.5;mix-blend-mode:lighten"></path><path d="M329.79,376.64a22,22,0,0,0-43.89,0c0,.21,0,.4,0,.61s0,.4,0,.61c.24,3,2.39,6,6.42,8.35,8.56,5,22.48,5,31.07,0,4-2.33,6.15-5.31,6.4-8.35,0-.21,0-.4,0-.61S329.81,376.85,329.79,376.64Z" style="fill:#BA68C8"></path><path d="M329.79,376.64a22,22,0,0,0-43.89,0c0,.21,0,.4,0,.61s0,.4,0,.61c.24,3,2.39,6,6.42,8.35,8.56,5,22.48,5,31.07,0,4-2.33,6.15-5.31,6.4-8.35,0-.21,0-.4,0-.61S329.81,376.85,329.79,376.64Z" style="fill:#fff;opacity:0.8"></path><path d="M317.37,357.47h0a21.93,21.93,0,0,0-31.47,19.17c0,.21,0,.4,0,.61s0,.4,0,.61c.24,3,2.39,6,6.42,8.35a29.27,29.27,0,0,0,11,3.44c-5.7-1-9.39-7.34-7.63-14.36C297.74,367.14,306,355.37,317.37,357.47Z" style="fill:#fff;opacity:0.30000000000000004;mix-blend-mode:lighten"></path><path d="M329.79,377.86c0-.21,0-.4,0-.61s0-.4,0-.61a21.83,21.83,0,0,0-7.45-15.87c2.38,2.45,7.69,11.7,1.92,18.74-3.79,4.64-21.79,11.25-36.6,2.75a15.15,15.15,0,0,0,4.66,3.95c8.56,5,22.48,5,31.07,0C327.4,383.88,329.54,380.9,329.79,377.86Z" style="fill:#BA68C8;opacity:0.1"></path><path d="M307.62,360.23c1,2.24-.91,5.23-4.22,6.69s-6.79.82-7.77-1.42.9-5.23,4.21-6.69S306.64,358,307.62,360.23Z" style="fill:#fff;opacity:0.5;mix-blend-mode:lighten"></path><path d="M294.9,369.34a2.88,2.88,0,1,1-3.51-1A2.61,2.61,0,0,1,294.9,369.34Z" style="fill:#fff;opacity:0.5;mix-blend-mode:lighten"></path><path d="M352.1,380.4a14.52,14.52,0,0,0-29,0c0,.14,0,.27,0,.41s0,.26,0,.4c.17,2,1.58,4,4.25,5.52,5.66,3.28,14.87,3.28,20.54,0,2.66-1.54,4.07-3.51,4.24-5.52,0-.14,0-.27,0-.4S352.11,380.54,352.1,380.4Z" style="fill:#BA68C8"></path><path d="M352.1,380.4a14.52,14.52,0,0,0-29,0c0,.14,0,.27,0,.41s0,.26,0,.4c.17,2,1.58,4,4.25,5.52,5.66,3.28,14.87,3.28,20.54,0,2.66-1.54,4.07-3.51,4.24-5.52,0-.14,0-.27,0-.4S352.11,380.54,352.1,380.4Z" style="fill:#fff;opacity:0.9"></path><path d="M343.89,367.73h0a14.5,14.5,0,0,0-20.82,12.67c0,.14,0,.27,0,.41s0,.26,0,.4c.17,2,1.58,4,4.25,5.52a19.44,19.44,0,0,0,7.29,2.28c-3.77-.65-6.21-4.86-5.05-9.5C330.9,374.12,336.35,366.34,343.89,367.73Z" style="fill:#fff;opacity:0.5;mix-blend-mode:lighten"></path><path d="M352.1,381.21c0-.14,0-.27,0-.4s0-.27,0-.41a14.46,14.46,0,0,0-4.93-10.49c1.58,1.62,5.09,7.73,1.27,12.39-2.5,3.07-14.4,7.44-24.2,1.82a9.92,9.92,0,0,0,3.08,2.61c5.66,3.28,14.87,3.28,20.54,0C350.52,385.19,351.93,383.22,352.1,381.21Z" style="fill:#BA68C8;opacity:0.1"></path><path d="M337.44,369.55c.65,1.48-.6,3.46-2.79,4.42s-4.49.55-5.14-.93.6-3.46,2.79-4.42S336.79,368.07,337.44,369.55Z" style="fill:#fff;opacity:0.5;mix-blend-mode:lighten"></path><path d="M329,375.58a1.91,1.91,0,1,1-2.32-.65A1.73,1.73,0,0,1,329,375.58Z" style="fill:#fff;opacity:0.5;mix-blend-mode:lighten"></path><path d="M385.42,382.89a19.73,19.73,0,0,0-39.45,0c0,.19,0,.36,0,.55s0,.36,0,.55c.23,2.73,2.15,5.41,5.78,7.5,7.69,4.45,20.2,4.45,27.91,0,3.61-2.09,5.53-4.77,5.76-7.5a7.57,7.57,0,0,0,0-1.1Z" style="fill:#BA68C8"></path><path d="M385.42,382.89a19.73,19.73,0,0,0-39.45,0c0,.19,0,.36,0,.55s0,.36,0,.55c.23,2.73,2.15,5.41,5.78,7.5,7.69,4.45,20.2,4.45,27.91,0,3.61-2.09,5.53-4.77,5.76-7.5a7.57,7.57,0,0,0,0-1.1Z" style="fill:#fff;opacity:0.7000000000000001"></path><path d="M374.26,365.67h0A19.71,19.71,0,0,0,346,382.89c0,.19,0,.36,0,.55s0,.36,0,.55c.23,2.73,2.15,5.41,5.78,7.5a26,26,0,0,0,9.9,3.09c-5.12-.88-8.44-6.59-6.86-12.9C356.61,374.36,364,363.78,374.26,365.67Z" style="fill:#fff;opacity:0.30000000000000004;mix-blend-mode:lighten"></path><path d="M385.42,384a7.57,7.57,0,0,0,0-1.1,19.65,19.65,0,0,0-6.7-14.26c2.14,2.21,6.91,10.51,1.73,16.84-3.41,4.17-19.58,10.11-32.89,2.47a13.56,13.56,0,0,0,4.19,3.55c7.69,4.45,20.2,4.45,27.91,0C383.27,389.4,385.19,386.72,385.42,384Z" style="fill:#BA68C8;opacity:0.1"></path><path d="M365.5,368.15c.88,2-.82,4.7-3.79,6s-6.11.74-7-1.27.81-4.7,3.79-6S364.61,366.14,365.5,368.15Z" style="fill:#fff;opacity:0.5;mix-blend-mode:lighten"></path><path d="M354.07,376.33a2.59,2.59,0,1,1-3.16-.87A2.34,2.34,0,0,1,354.07,376.33Z" style="fill:#fff;opacity:0.5;mix-blend-mode:lighten"></path><path d="M304.24,325.86A22.39,22.39,0,0,1,296.31,343,14.63,14.63,0,0,0,291,354.13V405.9c0,1.37-.9,2.73-2.71,3.78a11.69,11.69,0,0,1-3.39,1.24,15.86,15.86,0,0,1-6.29,0,11.81,11.81,0,0,1-3.38-1.24c-1.8-1.05-2.71-2.41-2.71-3.78V354a14.49,14.49,0,0,0-5.29-11,22.34,22.34,0,0,1-8-17.33,22.49,22.49,0,0,1,45,.18Z" style="fill:#BA68C8"></path><path d="M304.24,325.86A22.39,22.39,0,0,1,296.31,343,14.63,14.63,0,0,0,291,354.13V405.9c0,1.37-.9,2.73-2.71,3.78a11.69,11.69,0,0,1-3.39,1.24,15.86,15.86,0,0,1-6.29,0,11.81,11.81,0,0,1-3.38-1.24c-1.8-1.05-2.71-2.41-2.71-3.78V354a14.49,14.49,0,0,0-5.29-11,22.34,22.34,0,0,1-8-17.33,22.49,22.49,0,0,1,45,.18Z" style="fill:#fff;opacity:0.5"></path><path d="M294.3,325.86A12.53,12.53,0,0,1,289,336.08a10.19,10.19,0,0,0-4.12,8.35V405.9a3.18,3.18,0,0,1-3.11,3.21h-.07a3.18,3.18,0,0,1-3.11-3.21V344.27a10,10,0,0,0-4.12-8.19,12.53,12.53,0,0,1-5.28-10.57,12.68,12.68,0,0,1,12.05-12.19A12.55,12.55,0,0,1,294.3,325.86Z" style="fill:#BA68C8"></path><path d="M294.3,325.86A12.53,12.53,0,0,1,289,336.08a10.19,10.19,0,0,0-4.12,8.35V405.9a3.18,3.18,0,0,1-3.11,3.21h-.07a3.18,3.18,0,0,1-3.11-3.21V344.27a10,10,0,0,0-4.12-8.19,12.53,12.53,0,0,1-5.28-10.57,12.68,12.68,0,0,1,12.05-12.19A12.55,12.55,0,0,1,294.3,325.86Z" style="fill:#fff;opacity:0.7000000000000001"></path><path d="M285.27,334.17a5.87,5.87,0,1,1,5.86,5.87A5.86,5.86,0,0,1,285.27,334.17Z" style="fill:#fff;opacity:0.7000000000000001"></path><path d="M287.55,322.5a3.59,3.59,0,1,1,3.58,3.58A3.58,3.58,0,0,1,287.55,322.5Z" style="fill:#fff;opacity:0.7000000000000001"></path><path d="M280.7,316.78a1.78,1.78,0,1,1,1.78,1.78A1.78,1.78,0,0,1,280.7,316.78Z" style="fill:#fff;opacity:0.7000000000000001"></path><path d="M266.52,318.92a4.82,4.82,0,1,1,4.82,4.81A4.82,4.82,0,0,1,266.52,318.92Z" style="fill:#fff;opacity:0.7000000000000001"></path><path d="M265.72,327.62a2.26,2.26,0,1,0,2.26-2.26A2.26,2.26,0,0,0,265.72,327.62Z" style="fill:#fff;opacity:0.7000000000000001"></path><path d="M267.41,335.53a3.67,3.67,0,1,1,3.66,3.67A3.66,3.66,0,0,1,267.41,335.53Z" style="fill:#fff;opacity:0.7000000000000001"></path><path d="M276.16,341.07a3,3,0,1,1,3,3A3,3,0,0,1,276.16,341.07Z" style="fill:#fff;opacity:0.7000000000000001"></path><path d="M261.43,322.5A1.54,1.54,0,1,1,263,324,1.54,1.54,0,0,1,261.43,322.5Z" style="fill:#fff;opacity:0.7000000000000001"></path><path d="M294.94,316.13a2,2,0,1,1,2,2A2,2,0,0,1,294.94,316.13Z" style="fill:#fff;opacity:0.7000000000000001"></path><circle cx="299" cy="326.08" r="2.04" style="fill:#fff;opacity:0.7000000000000001"></circle><path d="M275.8,327.73a2,2,0,1,1,2.05,2A2.05,2.05,0,0,1,275.8,327.73Z" style="fill:#fff;opacity:0.7000000000000001"></path><path d="M408.45,388.55a12,12,0,0,0-24,0c0,.12,0,.22,0,.34s0,.22,0,.33c.13,1.67,1.31,3.3,3.52,4.58,4.69,2.71,12.31,2.71,17,0,2.2-1.28,3.37-2.91,3.51-4.58,0-.11,0-.21,0-.33S408.46,388.67,408.45,388.55Z" style="fill:#BA68C8"></path><path d="M408.45,388.55a12,12,0,0,0-24,0c0,.12,0,.22,0,.34s0,.22,0,.33c.13,1.67,1.31,3.3,3.52,4.58,4.69,2.71,12.31,2.71,17,0,2.2-1.28,3.37-2.91,3.51-4.58,0-.11,0-.21,0-.33S408.46,388.67,408.45,388.55Z" style="fill:#fff;opacity:0.5"></path><path d="M401.65,378.06h0a12,12,0,0,0-17.24,10.49c0,.12,0,.22,0,.34s0,.22,0,.33c.13,1.67,1.31,3.3,3.52,4.58a15.87,15.87,0,0,0,6,1.88c-3.12-.54-5.14-4-4.18-7.86C390.89,383.36,395.4,376.91,401.65,378.06Z" style="fill:#fff;opacity:0.5;mix-blend-mode:lighten"></path><path d="M408.45,389.22c0-.11,0-.21,0-.33s0-.22,0-.34a12,12,0,0,0-4.08-8.68c1.3,1.34,4.21,6.4,1.05,10.26-2.08,2.54-11.93,6.16-20,1.51a8.21,8.21,0,0,0,2.55,2.16c4.69,2.71,12.31,2.71,17,0C407.14,392.52,408.31,390.89,408.45,389.22Z" style="fill:#BA68C8;opacity:0.2"></path><path d="M396.31,379.57c.53,1.23-.5,2.87-2.31,3.66s-3.72.45-4.26-.78.49-2.86,2.31-3.66S395.77,378.34,396.31,379.57Z" style="fill:#fff;opacity:0.5;mix-blend-mode:lighten"></path><path d="M389.34,384.56a1.58,1.58,0,0,1-2.83,1.24,1.58,1.58,0,0,1,2.83-1.24Z" style="fill:#fff;opacity:0.5;mix-blend-mode:lighten"></path><path d="M390.06,397.59a16.56,16.56,0,0,0-33.11,0c0,.16,0,.3,0,.46s0,.3,0,.46c.19,2.29,1.8,4.54,4.85,6.3,6.46,3.74,16.95,3.74,23.43,0,3-1.76,4.64-4,4.83-6.3,0-.16,0-.3,0-.46S390.07,397.75,390.06,397.59Z" style="fill:#BA68C8"></path><path d="M390.06,397.59a16.56,16.56,0,0,0-33.11,0c0,.16,0,.3,0,.46s0,.3,0,.46c.19,2.29,1.8,4.54,4.85,6.3,6.46,3.74,16.95,3.74,23.43,0,3-1.76,4.64-4,4.83-6.3,0-.16,0-.3,0-.46S390.07,397.75,390.06,397.59Z" style="fill:#fff;opacity:0.6000000000000001"></path><path d="M380.69,383.14h0A16.53,16.53,0,0,0,357,397.59c0,.16,0,.3,0,.46s0,.3,0,.46c.19,2.29,1.8,4.54,4.85,6.3a22,22,0,0,0,8.3,2.6c-4.29-.75-7.07-5.54-5.75-10.84C365.88,390.43,372.09,381.55,380.69,383.14Z" style="fill:#fff;opacity:0.5;mix-blend-mode:lighten"></path><path d="M390.06,398.51c0-.16,0-.3,0-.46s0-.3,0-.46a16.53,16.53,0,0,0-5.62-12c1.79,1.85,5.8,8.82,1.45,14.14-2.86,3.49-16.44,8.48-27.61,2.07a11.42,11.42,0,0,0,3.52,3c6.46,3.74,16.95,3.74,23.43,0C388.25,403.05,389.87,400.8,390.06,398.51Z" style="fill:#BA68C8;opacity:0.1"></path><path d="M373.34,385.22c.74,1.69-.69,3.94-3.19,5s-5.12.62-5.86-1.07.68-3.95,3.18-5S372.59,383.53,373.34,385.22Z" style="fill:#fff;opacity:0.30000000000000004;mix-blend-mode:lighten"></path><path d="M363.74,392.09a2.17,2.17,0,1,1-2.65-.74A2,2,0,0,1,363.74,392.09Z" style="fill:#fff;opacity:0.30000000000000004;mix-blend-mode:lighten"></path><path d="M360.54,403.47a20.55,20.55,0,0,0-41.09,0c0,.2,0,.38,0,.58s0,.37,0,.57c.24,2.85,2.24,5.64,6,7.82,8,4.63,21,4.63,29.07,0,3.76-2.18,5.77-5,6-7.82a5.52,5.52,0,0,0,0-.57A5.62,5.62,0,0,0,360.54,403.47Z" style="fill:#BA68C8"></path><path d="M360.54,403.47a20.55,20.55,0,0,0-41.09,0c0,.2,0,.38,0,.58s0,.37,0,.57c.24,2.85,2.24,5.64,6,7.82,8,4.63,21,4.63,29.07,0,3.76-2.18,5.77-5,6-7.82a5.52,5.52,0,0,0,0-.57A5.62,5.62,0,0,0,360.54,403.47Z" style="fill:#fff;opacity:0.8"></path><path d="M348.91,385.54h0a20.53,20.53,0,0,0-29.46,17.93c0,.2,0,.38,0,.58s0,.37,0,.57c.24,2.85,2.24,5.64,6,7.82a27.48,27.48,0,0,0,10.31,3.22c-5.33-.92-8.78-6.88-7.14-13.45C330.54,394.59,338.24,383.57,348.91,385.54Z" style="fill:#fff;opacity:0.30000000000000004;mix-blend-mode:lighten"></path><path d="M360.54,404.62a5.52,5.52,0,0,0,0-.57,5.62,5.62,0,0,0,0-.58,20.4,20.4,0,0,0-7-14.84c2.23,2.29,7.2,10.94,1.8,17.54-3.54,4.33-20.39,10.52-34.25,2.57a14.2,14.2,0,0,0,4.36,3.7c8,4.63,21,4.63,29.07,0C358.3,410.26,360.31,407.47,360.54,404.62Z" style="fill:#BA68C8;opacity:0.1"></path><path d="M339.79,388.12c.92,2.1-.85,4.9-4,6.26s-6.36.76-7.28-1.33.85-4.9,3.95-6.26S338.87,386,339.79,388.12Z" style="fill:#fff;opacity:0.30000000000000004;mix-blend-mode:lighten"></path><path d="M327.88,396.65a2.7,2.7,0,1,1-3.29-.92A2.45,2.45,0,0,1,327.88,396.65Z" style="fill:#fff;opacity:0.30000000000000004;mix-blend-mode:lighten"></path><path d="M418.62,391.37a7.26,7.26,0,0,0-14.52,0,1.41,1.41,0,0,0,0,.2,1.48,1.48,0,0,0,0,.21,3.73,3.73,0,0,0,2.12,2.76,11.35,11.35,0,0,0,10.28,0,3.73,3.73,0,0,0,2.12-2.76,1.48,1.48,0,0,0,0-.21A1.41,1.41,0,0,0,418.62,391.37Z" style="fill:#BA68C8"></path><path d="M418.62,391.37a7.26,7.26,0,0,0-14.52,0,1.41,1.41,0,0,0,0,.2,1.48,1.48,0,0,0,0,.21,3.73,3.73,0,0,0,2.12,2.76,11.35,11.35,0,0,0,10.28,0,3.73,3.73,0,0,0,2.12-2.76,1.48,1.48,0,0,0,0-.21A1.41,1.41,0,0,0,418.62,391.37Z" style="fill:#fff;opacity:0.2"></path><path d="M414.51,385h0a7.26,7.26,0,0,0-10.41,6.34,1.41,1.41,0,0,0,0,.2,1.48,1.48,0,0,0,0,.21,3.73,3.73,0,0,0,2.12,2.76,9.65,9.65,0,0,0,3.65,1.14c-1.89-.33-3.11-2.43-2.53-4.75C408,388.23,410.74,384.33,414.51,385Z" style="fill:#fff;opacity:0.5;mix-blend-mode:lighten"></path><path d="M418.62,391.78a1.48,1.48,0,0,0,0-.21,1.41,1.41,0,0,0,0-.2,7.23,7.23,0,0,0-2.46-5.25c.79.81,2.54,3.87.63,6.2-1.25,1.54-7.21,3.73-12.11.91a5.09,5.09,0,0,0,1.54,1.31,11.35,11.35,0,0,0,10.28,0A3.73,3.73,0,0,0,418.62,391.78Z" style="opacity:0.05"></path><path d="M411.29,385.94c.32.74-.3,1.73-1.4,2.22s-2.25.27-2.57-.47.3-1.73,1.39-2.22S411,385.2,411.29,385.94Z" style="fill:#fff;opacity:0.30000000000000004;mix-blend-mode:lighten"></path><path d="M407.08,389a1,1,0,1,1-1.17-.32A.86.86,0,0,1,407.08,389Z" style="fill:#fff;opacity:0.30000000000000004;mix-blend-mode:lighten"></path><path d="M156.79,382.63a12,12,0,0,1,24,0c0,.12,0,.22,0,.34s0,.22,0,.33c-.14,1.67-1.31,3.3-3.52,4.58-4.69,2.71-12.31,2.71-17,0-2.2-1.28-3.37-2.91-3.51-4.58,0-.11,0-.22,0-.33S156.78,382.75,156.79,382.63Z" style="fill:#BA68C8"></path><path d="M156.79,382.63a12,12,0,0,1,24,0c0,.12,0,.22,0,.34s0,.22,0,.33c-.14,1.67-1.31,3.3-3.52,4.58-4.69,2.71-12.31,2.71-17,0-2.2-1.28-3.37-2.91-3.51-4.58,0-.11,0-.22,0-.33S156.78,382.75,156.79,382.63Z" style="fill:#fff;opacity:0.5"></path><path d="M163.59,372.14h0a11.89,11.89,0,0,1,5.22-1.21,12,12,0,0,1,12,11.7c0,.12,0,.22,0,.34s0,.22,0,.33c-.14,1.67-1.31,3.3-3.52,4.58a16,16,0,0,1-6,1.88c3.12-.54,5.14-4,4.18-7.87C174.34,377.43,169.83,371,163.59,372.14Z" style="fill:#fff;opacity:0.5;mix-blend-mode:lighten"></path><path d="M156.79,383.3c0-.11,0-.22,0-.33s0-.22,0-.34a12,12,0,0,1,4.08-8.69c-1.31,1.34-4.21,6.41-1.05,10.27,2.07,2.53,11.93,6.16,20,1.5a8.23,8.23,0,0,1-2.55,2.17c-4.69,2.71-12.31,2.71-17,0C158.1,386.6,156.93,385,156.79,383.3Z" style="fill:#BA68C8;opacity:0.2"></path><path d="M168.93,373.65c-.54,1.22.5,2.86,2.31,3.66s3.72.45,4.26-.78-.5-2.86-2.31-3.66S169.47,372.42,168.93,373.65Z" style="fill:#fff;opacity:0.30000000000000004;mix-blend-mode:lighten"></path><path d="M175.9,378.63a1.58,1.58,0,1,0,1.92-.53A1.42,1.42,0,0,0,175.9,378.63Z" style="fill:#fff;opacity:0.30000000000000004;mix-blend-mode:lighten"></path><path d="M192.74,381.37a17.44,17.44,0,0,1,34.87,0,4,4,0,0,1,0,.49,3.85,3.85,0,0,1,0,.48c-.2,2.42-1.9,4.79-5.1,6.64-6.81,3.93-17.86,3.93-24.68,0-3.19-1.85-4.89-4.22-5.09-6.64,0-.16,0-.32,0-.48S192.73,381.54,192.74,381.37Z" style="fill:#BA68C8"></path><path d="M192.74,381.37a17.44,17.44,0,0,1,34.87,0,4,4,0,0,1,0,.49,3.85,3.85,0,0,1,0,.48c-.2,2.42-1.9,4.79-5.1,6.64-6.81,3.93-17.86,3.93-24.68,0-3.19-1.85-4.89-4.22-5.09-6.64,0-.16,0-.32,0-.48S192.73,381.54,192.74,381.37Z" style="fill:#fff;opacity:0.7000000000000001"></path><path d="M202.61,366.15h0a17.42,17.42,0,0,1,25,15.22,4,4,0,0,1,0,.49,3.85,3.85,0,0,1,0,.48c-.2,2.42-1.9,4.79-5.1,6.64a23.22,23.22,0,0,1-8.75,2.73c4.52-.78,7.45-5.83,6.06-11.41C218.21,373.83,211.66,364.48,202.61,366.15Z" style="fill:#fff;opacity:0.30000000000000004;mix-blend-mode:lighten"></path><path d="M192.74,382.34c0-.16,0-.32,0-.48s0-.32,0-.49a17.35,17.35,0,0,1,5.92-12.6c-1.89,2-6.11,9.29-1.53,14.89,3,3.68,17.31,8.93,29.08,2.18a12,12,0,0,1-3.7,3.14c-6.81,3.93-17.86,3.93-24.68,0C194.64,387.13,192.94,384.76,192.74,382.34Z" style="fill:#BA68C8;opacity:0.1"></path><path d="M210.35,368.34c-.78,1.78.72,4.16,3.35,5.31s5.4.65,6.18-1.13-.72-4.15-3.35-5.31S211.13,366.56,210.35,368.34Z" style="fill:#fff;opacity:0.5;mix-blend-mode:lighten"></path><path d="M220.46,375.58a2.29,2.29,0,1,0,2.79-.78A2.07,2.07,0,0,0,220.46,375.58Z" style="fill:#fff;opacity:0.5;mix-blend-mode:lighten"></path><path d="M177.39,391.61a16.56,16.56,0,0,1,33.1,0c0,.16,0,.3,0,.46s0,.3,0,.46c-.19,2.29-1.8,4.54-4.84,6.3-6.46,3.74-17,3.74-23.43,0-3-1.76-4.65-4-4.83-6.3a5.3,5.3,0,0,1,0-.92Z" style="fill:#BA68C8"></path><path d="M177.39,391.61a16.56,16.56,0,0,1,33.1,0c0,.16,0,.3,0,.46s0,.3,0,.46c-.19,2.29-1.8,4.54-4.84,6.3-6.46,3.74-17,3.74-23.43,0-3-1.76-4.65-4-4.83-6.3a5.3,5.3,0,0,1,0-.92Z" style="fill:#fff;opacity:0.6000000000000001"></path><path d="M186.75,377.16h0a16.53,16.53,0,0,1,23.74,14.45c0,.16,0,.3,0,.46s0,.3,0,.46c-.19,2.29-1.8,4.54-4.84,6.3a21.9,21.9,0,0,1-8.31,2.59c4.29-.74,7.07-5.53,5.75-10.83C201.56,384.45,195.35,375.57,186.75,377.16Z" style="fill:#fff;opacity:0.5;mix-blend-mode:lighten"></path><path d="M177.39,392.53a5.3,5.3,0,0,1,0-.92,16.47,16.47,0,0,1,5.62-12c-1.8,1.85-5.8,8.82-1.46,14.14,2.86,3.49,16.44,8.48,27.61,2.07a11.63,11.63,0,0,1-3.51,3c-6.46,3.74-17,3.74-23.43,0C179.19,397.07,177.57,394.82,177.39,392.53Z" style="fill:#BA68C8;opacity:0.15"></path><path d="M194.11,379.24c-.74,1.68.68,3.94,3.18,5s5.12.62,5.86-1.07-.68-3.95-3.18-5S194.85,377.55,194.11,379.24Z" style="fill:#fff;opacity:0.30000000000000004;mix-blend-mode:lighten"></path><path d="M203.7,386.11a2.17,2.17,0,1,0,2.65-.74A1.95,1.95,0,0,0,203.7,386.11Z" style="fill:#fff;opacity:0.30000000000000004;mix-blend-mode:lighten"></path><path d="M208.07,401a20.55,20.55,0,0,1,41.08,0,5.33,5.33,0,0,1,0,.57,5.43,5.43,0,0,1,0,.57c-.23,2.85-2.23,5.64-6,7.82-8,4.64-21,4.64-29.08,0-3.75-2.18-5.76-5-6-7.82a5.43,5.43,0,0,1,0-.57A5.33,5.33,0,0,1,208.07,401Z" style="fill:#BA68C8"></path><path d="M208.07,401a20.55,20.55,0,0,1,41.08,0,5.33,5.33,0,0,1,0,.57,5.43,5.43,0,0,1,0,.57c-.23,2.85-2.23,5.64-6,7.82-8,4.64-21,4.64-29.08,0-3.75-2.18-5.76-5-6-7.82a5.43,5.43,0,0,1,0-.57A5.33,5.33,0,0,1,208.07,401Z" style="fill:#fff;opacity:0.8"></path><path d="M219.7,383.06h0A20.52,20.52,0,0,1,249.15,401a5.33,5.33,0,0,1,0,.57,5.43,5.43,0,0,1,0,.57c-.23,2.85-2.23,5.64-6,7.82a27.48,27.48,0,0,1-10.31,3.22c5.33-.92,8.78-6.87,7.14-13.45C238.07,392.11,230.36,381.09,219.7,383.06Z" style="fill:#fff;opacity:0.30000000000000004;mix-blend-mode:lighten"></path><path d="M208.07,402.14a5.43,5.43,0,0,1,0-.57,5.33,5.33,0,0,1,0-.57,20.44,20.44,0,0,1,7-14.85c-2.23,2.29-7.19,10.94-1.8,17.54,3.55,4.34,20.4,10.52,34.26,2.57a14.2,14.2,0,0,1-4.36,3.7c-8,4.64-21,4.64-29.08,0C210.31,407.78,208.3,405,208.07,402.14Z" style="fill:#BA68C8;opacity:0.1"></path><path d="M228.82,385.64c-.92,2.1.85,4.9,4,6.26s6.36.77,7.28-1.33-.85-4.89-4-6.26S229.74,383.55,228.82,385.64Z" style="fill:#fff;opacity:0.30000000000000004;mix-blend-mode:lighten"></path><path d="M240.72,394.17a2.7,2.7,0,1,0,3.29-.91A2.45,2.45,0,0,0,240.72,394.17Z" style="fill:#fff;opacity:0.30000000000000004;mix-blend-mode:lighten"></path><path d="M323.18,404.68a18.76,18.76,0,0,0-37.51,0,4.7,4.7,0,0,0,0,.53,4.52,4.52,0,0,0,0,.52c.21,2.6,2,5.15,5.49,7.14,7.32,4.23,19.21,4.23,26.54,0,3.43-2,5.26-4.54,5.48-7.14,0-.18,0-.34,0-.52S323.19,404.86,323.18,404.68Z" style="fill:#BA68C8"></path><path d="M323.18,404.68a18.76,18.76,0,0,0-37.51,0,4.7,4.7,0,0,0,0,.53,4.52,4.52,0,0,0,0,.52c.21,2.6,2,5.15,5.49,7.14,7.32,4.23,19.21,4.23,26.54,0,3.43-2,5.26-4.54,5.48-7.14,0-.18,0-.34,0-.52S323.19,404.86,323.18,404.68Z" style="fill:#fff;opacity:0.9"></path><path d="M312.56,388.31h0a18.74,18.74,0,0,0-26.89,16.37,4.7,4.7,0,0,0,0,.53,4.52,4.52,0,0,0,0,.52c.21,2.6,2,5.15,5.49,7.14a25.11,25.11,0,0,0,9.41,2.94c-4.87-.84-8-6.28-6.52-12.28C295.79,396.57,302.82,386.51,312.56,388.31Z" style="fill:#fff;opacity:0.5;mix-blend-mode:lighten"></path><path d="M323.18,405.73c0-.18,0-.34,0-.52s0-.35,0-.53a18.68,18.68,0,0,0-6.37-13.55c2,2.09,6.57,10,1.64,16-3.24,4-18.62,9.61-31.27,2.35a13.1,13.1,0,0,0,4,3.38c7.32,4.23,19.21,4.23,26.54,0C321.13,410.88,323,408.33,323.18,405.73Z" style="fill:#BA68C8;opacity:0.1"></path><path d="M304.23,390.67c.84,1.91-.77,4.47-3.6,5.71s-5.81.7-6.65-1.21.78-4.47,3.61-5.71S303.39,388.76,304.23,390.67Z" style="fill:#fff;opacity:0.5;mix-blend-mode:lighten"></path><path d="M293.36,398.45a2.46,2.46,0,1,1-3-.83A2.21,2.21,0,0,1,293.36,398.45Z" style="fill:#fff;opacity:0.5;mix-blend-mode:lighten"></path><path d="M244.84,406.72a17.84,17.84,0,0,1,35.67,0,6.26,6.26,0,0,1,0,1c-.2,2.47-1.94,4.89-5.22,6.79-7,4-18.27,4-25.24,0-3.26-1.9-5-4.32-5.21-6.79,0-.17,0-.33,0-.5S244.83,406.89,244.84,406.72Z" style="fill:#BA68C8"></path><path d="M244.84,406.72a17.84,17.84,0,0,1,35.67,0,6.26,6.26,0,0,1,0,1c-.2,2.47-1.94,4.89-5.22,6.79-7,4-18.27,4-25.24,0-3.26-1.9-5-4.32-5.21-6.79,0-.17,0-.33,0-.5S244.83,406.89,244.84,406.72Z" style="fill:#fff;opacity:0.9"></path><path d="M254.94,391.15h0a17.81,17.81,0,0,1,25.57,15.57,6.26,6.26,0,0,1,0,1c-.2,2.47-1.94,4.89-5.22,6.79a23.63,23.63,0,0,1-9,2.79c4.63-.8,7.63-6,6.2-11.67C270.89,399,264.2,389.44,254.94,391.15Z" style="fill:#fff;opacity:0.5;mix-blend-mode:lighten"></path><path d="M244.84,407.72c0-.17,0-.33,0-.5s0-.33,0-.5a17.78,17.78,0,0,1,6.06-12.89c-1.94,2-6.25,9.51-1.57,15.23,3.09,3.77,17.71,9.14,29.75,2.23a12.34,12.34,0,0,1-3.79,3.22c-7,4-18.27,4-25.24,0C246.79,412.61,245.05,410.19,244.84,407.72Z" style="fill:#BA68C8;opacity:0.1"></path><path d="M262.86,393.39c-.8,1.82.74,4.25,3.43,5.44s5.52.66,6.32-1.16-.74-4.25-3.43-5.43S263.66,391.57,262.86,393.39Z" style="fill:#fff;opacity:0.5;mix-blend-mode:lighten"></path><path d="M273.2,400.79a2.34,2.34,0,1,0,2.85-.79A2.11,2.11,0,0,0,273.2,400.79Z" style="fill:#fff;opacity:0.5;mix-blend-mode:lighten"></path><path d="M291.13,413a7.27,7.27,0,0,0-14.53,0,1.34,1.34,0,0,0,0,.2,1.48,1.48,0,0,0,0,.21,3.72,3.72,0,0,0,2.13,2.76,11.35,11.35,0,0,0,10.28,0,3.78,3.78,0,0,0,2.12-2.76V413Z" style="fill:#BA68C8"></path><path d="M291.13,413a7.27,7.27,0,0,0-14.53,0,1.34,1.34,0,0,0,0,.2,1.48,1.48,0,0,0,0,.21,3.72,3.72,0,0,0,2.13,2.76,11.35,11.35,0,0,0,10.28,0,3.78,3.78,0,0,0,2.12-2.76V413Z" style="fill:#fff;opacity:0.9"></path><path d="M287,406.62h0A7.25,7.25,0,0,0,276.6,413a1.34,1.34,0,0,0,0,.2,1.48,1.48,0,0,0,0,.21,3.72,3.72,0,0,0,2.13,2.76,9.55,9.55,0,0,0,3.64,1.14c-1.88-.33-3.1-2.43-2.52-4.76C280.52,409.82,283.24,405.92,287,406.62Z" style="fill:#fff;opacity:0.6000000000000001;mix-blend-mode:lighten"></path><path d="M291.13,413.37V413a7.24,7.24,0,0,0-2.47-5.25c.79.81,2.54,3.87.64,6.2-1.26,1.54-7.21,3.72-12.12.91a5,5,0,0,0,1.55,1.31,11.35,11.35,0,0,0,10.28,0A3.78,3.78,0,0,0,291.13,413.37Z" style="fill:#BA68C8;opacity:0.1"></path><path d="M283.79,407.53c.32.74-.3,1.73-1.4,2.21s-2.25.28-2.57-.47.3-1.73,1.4-2.21S283.46,406.79,283.79,407.53Z" style="fill:#fff;opacity:0.5;mix-blend-mode:lighten"></path><path d="M279.58,410.55a1,1,0,1,1-1.16-.33A.86.86,0,0,1,279.58,410.55Z" style="fill:#fff;opacity:0.5;mix-blend-mode:lighten"></path><path d="M146.61,385.45a7.27,7.27,0,0,1,14.53,0,2,2,0,0,1,0,.4,3.73,3.73,0,0,1-2.12,2.77,11.38,11.38,0,0,1-10.29,0,3.78,3.78,0,0,1-2.12-2.77v-.4Z" style="fill:#BA68C8"></path><path d="M146.61,385.45a7.27,7.27,0,0,1,14.53,0,2,2,0,0,1,0,.4,3.73,3.73,0,0,1-2.12,2.77,11.38,11.38,0,0,1-10.29,0,3.78,3.78,0,0,1-2.12-2.77v-.4Z" style="fill:#fff;opacity:0.2"></path><path d="M150.73,379.11h0a7.24,7.24,0,0,1,10.41,6.34,2,2,0,0,1,0,.4,3.73,3.73,0,0,1-2.12,2.77,9.65,9.65,0,0,1-3.65,1.13c1.88-.32,3.1-2.42,2.52-4.75C157.22,382.31,154.5,378.41,150.73,379.11Z" style="fill:#fff;opacity:0.5;mix-blend-mode:lighten"></path><path d="M146.61,385.85v-.4a7.23,7.23,0,0,1,2.47-5.25c-.79.81-2.54,3.87-.64,6.2,1.26,1.53,7.22,3.72,12.12.91a5.23,5.23,0,0,1-1.54,1.31,11.38,11.38,0,0,1-10.29,0A3.78,3.78,0,0,1,146.61,385.85Z" style="opacity:0.05"></path><path d="M154,380c-.32.74.3,1.73,1.4,2.21s2.25.27,2.57-.47-.3-1.73-1.39-2.21S154.28,379.28,154,380Z" style="fill:#fff;opacity:0.30000000000000004;mix-blend-mode:lighten"></path><path d="M158.16,383a1,1,0,1,0,1.16-.32A.87.87,0,0,0,158.16,383Z" style="fill:#fff;opacity:0.30000000000000004;mix-blend-mode:lighten"></path></g><g id="freepik--smoke--inject-190"><ellipse cx="210.64" cy="424.94" rx="58.18" ry="23.85" style="fill:#BA68C8"></ellipse><ellipse cx="210.64" cy="424.94" rx="58.18" ry="23.85" style="fill:#BA68C8"></ellipse><ellipse cx="210.64" cy="424.94" rx="58.18" ry="23.85" style="fill:#fff;opacity:0.9"></ellipse><path d="M151.38,412.62a25.85,25.85,0,0,1,51.69,0c0,.25,0,.47,0,.72s0,.47,0,.72c-.29,3.58-2.82,7.09-7.57,9.84-10.08,5.83-26.47,5.83-36.58,0-4.72-2.75-7.24-6.26-7.54-9.84,0-.25,0-.47,0-.72S151.36,412.87,151.38,412.62Z" style="fill:#BA68C8"></path><path d="M151.38,412.62a25.85,25.85,0,0,1,51.69,0c0,.25,0,.47,0,.72s0,.47,0,.72c-.29,3.58-2.82,7.09-7.57,9.84-10.08,5.83-26.47,5.83-36.58,0-4.72-2.75-7.24-6.26-7.54-9.84,0-.25,0-.47,0-.72S151.36,412.87,151.38,412.62Z" style="fill:#fff;opacity:0.8"></path><path d="M166,390.06h0a25.82,25.82,0,0,1,37.06,22.56c0,.25,0,.47,0,.72s0,.47,0,.72c-.29,3.58-2.82,7.09-7.57,9.84a34.47,34.47,0,0,1-13,4.05c6.71-1.16,11.05-8.65,9-16.92C189.13,401.44,179.43,387.58,166,390.06Z" style="fill:#fff;opacity:0.30000000000000004;mix-blend-mode:lighten"></path><path d="M151.38,414.06c0-.25,0-.47,0-.72s0-.47,0-.72a25.73,25.73,0,0,1,8.78-18.68c-2.81,2.89-9.06,13.77-2.27,22.07,4.47,5.45,25.66,13.24,43.1,3.23a18,18,0,0,1-5.49,4.66c-10.08,5.83-26.47,5.83-36.58,0C154.2,421.15,151.68,417.64,151.38,414.06Z" style="fill:#BA68C8;opacity:0.1"></path><path d="M177.49,393.31c-1.16,2.63,1.07,6.16,5,7.87s8,1,9.16-1.67-1.07-6.16-5-7.87S178.65,390.67,177.49,393.31Z" style="fill:#fff;opacity:0.5;mix-blend-mode:lighten"></path><path d="M192.46,404c-.6,1.37.28,3.09,2,3.82s3.53.23,4.14-1.14-.28-3.09-2-3.83S193.07,402.66,192.46,404Z" style="fill:#fff;opacity:0.5;mix-blend-mode:lighten"></path><path d="M257.78,418.21a22,22,0,0,0-43.89,0c0,.21,0,.4,0,.61s0,.4,0,.61c.25,3,2.39,6,6.42,8.36,8.57,4.95,22.48,4.95,31.07,0,4-2.34,6.15-5.32,6.4-8.36,0-.21,0-.4,0-.61S257.8,418.42,257.78,418.21Z" style="fill:#BA68C8"></path><path d="M257.78,418.21a22,22,0,0,0-43.89,0c0,.21,0,.4,0,.61s0,.4,0,.61c.25,3,2.39,6,6.42,8.36,8.57,4.95,22.48,4.95,31.07,0,4-2.34,6.15-5.32,6.4-8.36,0-.21,0-.4,0-.61S257.8,418.42,257.78,418.21Z" style="fill:#fff;opacity:0.8"></path><path d="M245.36,399.05h0a21.93,21.93,0,0,0-31.47,19.16c0,.21,0,.4,0,.61s0,.4,0,.61c.25,3,2.39,6,6.42,8.36a29.09,29.09,0,0,0,11,3.43c-5.7-1-9.38-7.34-7.63-14.36C225.73,408.72,234,396.94,245.36,399.05Z" style="fill:#fff;opacity:0.30000000000000004;mix-blend-mode:lighten"></path><path d="M257.78,419.43c0-.21,0-.4,0-.61s0-.4,0-.61a21.83,21.83,0,0,0-7.45-15.87c2.38,2.46,7.69,11.7,1.92,18.74-3.79,4.64-21.79,11.25-36.6,2.75a15.29,15.29,0,0,0,4.66,4c8.57,4.95,22.48,4.95,31.07,0C255.39,425.45,257.53,422.47,257.78,419.43Z" style="fill:#BA68C8;opacity:0.1"></path><path d="M235.61,401.81c1,2.23-.9,5.23-4.22,6.68s-6.79.82-7.77-1.42.9-5.23,4.22-6.68S234.63,399.57,235.61,401.81Z" style="fill:#fff;opacity:0.5;mix-blend-mode:lighten"></path><path d="M222.89,410.91a2.88,2.88,0,1,1-3.51-1A2.6,2.6,0,0,1,222.89,410.91Z" style="fill:#fff;opacity:0.5;mix-blend-mode:lighten"></path><path d="M280.09,422a14.52,14.52,0,0,0-29,0,2.82,2.82,0,0,0,0,.41,2.68,2.68,0,0,0,0,.4c.16,2,1.58,4,4.24,5.53,5.67,3.27,14.87,3.27,20.55,0,2.65-1.54,4.07-3.52,4.23-5.53,0-.14,0-.26,0-.4S280.1,422.11,280.09,422Z" style="fill:#BA68C8"></path><path d="M280.09,422a14.52,14.52,0,0,0-29,0,2.82,2.82,0,0,0,0,.41,2.68,2.68,0,0,0,0,.4c.16,2,1.58,4,4.24,5.53,5.67,3.27,14.87,3.27,20.55,0,2.65-1.54,4.07-3.52,4.23-5.53,0-.14,0-.26,0-.4S280.1,422.11,280.09,422Z" style="fill:#fff;opacity:0.9"></path><path d="M271.88,409.3h0A14.5,14.5,0,0,0,251.07,422a2.82,2.82,0,0,0,0,.41,2.68,2.68,0,0,0,0,.4c.16,2,1.58,4,4.24,5.53a19.43,19.43,0,0,0,7.29,2.27c-3.77-.65-6.21-4.85-5.05-9.5C258.9,415.7,264.34,407.91,271.88,409.3Z" style="fill:#fff;opacity:0.5;mix-blend-mode:lighten"></path><path d="M280.09,422.78c0-.14,0-.26,0-.4s0-.27,0-.41a14.46,14.46,0,0,0-4.93-10.49c1.58,1.63,5.09,7.74,1.28,12.4-2.51,3.06-14.41,7.43-24.21,1.81a10.19,10.19,0,0,0,3.08,2.62c5.67,3.27,14.87,3.27,20.55,0C278.51,426.77,279.93,424.79,280.09,422.78Z" style="fill:#BA68C8;opacity:0.1"></path><path d="M265.43,411.13c.65,1.48-.6,3.46-2.79,4.42s-4.49.54-5.14-.94.6-3.46,2.79-4.42S264.78,409.65,265.43,411.13Z" style="fill:#fff;opacity:0.5;mix-blend-mode:lighten"></path><path d="M257,417.15a1.91,1.91,0,1,1-2.32-.64A1.72,1.72,0,0,1,257,417.15Z" style="fill:#fff;opacity:0.5;mix-blend-mode:lighten"></path><path d="M313.41,424.46a19.73,19.73,0,0,0-39.44,0,7.57,7.57,0,0,0,0,1.1c.22,2.73,2.14,5.41,5.77,7.51,7.69,4.45,20.2,4.45,27.92,0,3.6-2.1,5.53-4.78,5.75-7.51a7.57,7.57,0,0,0,0-1.1Z" style="fill:#BA68C8"></path><path d="M313.41,424.46a19.73,19.73,0,0,0-39.44,0,7.57,7.57,0,0,0,0,1.1c.22,2.73,2.14,5.41,5.77,7.51,7.69,4.45,20.2,4.45,27.92,0,3.6-2.1,5.53-4.78,5.75-7.51a7.57,7.57,0,0,0,0-1.1Z" style="fill:#fff;opacity:0.7000000000000001"></path><path d="M302.25,407.24h0A19.7,19.7,0,0,0,274,424.46a7.57,7.57,0,0,0,0,1.1c.22,2.73,2.14,5.41,5.77,7.51a26.39,26.39,0,0,0,9.9,3.09c-5.12-.89-8.43-6.6-6.86-12.91C284.61,415.93,292,405.35,302.25,407.24Z" style="fill:#fff;opacity:0.30000000000000004;mix-blend-mode:lighten"></path><path d="M313.41,425.56a7.57,7.57,0,0,0,0-1.1,19.63,19.63,0,0,0-6.7-14.25c2.15,2.2,6.91,10.5,1.73,16.84-3.4,4.16-19.58,10.1-32.89,2.47a13.83,13.83,0,0,0,4.19,3.55c7.69,4.45,20.2,4.45,27.92,0C311.26,431,313.19,428.29,313.41,425.56Z" style="fill:#BA68C8;opacity:0.1"></path><path d="M293.49,409.72c.88,2-.82,4.7-3.79,6s-6.11.73-7-1.28.81-4.7,3.79-6S292.6,407.71,293.49,409.72Z" style="fill:#fff;opacity:0.5;mix-blend-mode:lighten"></path><path d="M282.06,417.91a2.59,2.59,0,1,1-3.16-.88A2.34,2.34,0,0,1,282.06,417.91Z" style="fill:#fff;opacity:0.5;mix-blend-mode:lighten"></path><path d="M232.24,367.43a22.43,22.43,0,0,1-7.93,17.13A14.61,14.61,0,0,0,219,395.7v51.77c0,1.37-.9,2.74-2.71,3.78a11.41,11.41,0,0,1-3.39,1.24,15.86,15.86,0,0,1-6.29,0,11.81,11.81,0,0,1-3.38-1.24c-1.8-1-2.7-2.41-2.7-3.78V395.6a14.5,14.5,0,0,0-5.3-11,22.34,22.34,0,0,1-8-17.33,22.5,22.5,0,0,1,45,.18Z" style="fill:#BA68C8"></path><path d="M232.24,367.43a22.43,22.43,0,0,1-7.93,17.13A14.61,14.61,0,0,0,219,395.7v51.77c0,1.37-.9,2.74-2.71,3.78a11.41,11.41,0,0,1-3.39,1.24,15.86,15.86,0,0,1-6.29,0,11.81,11.81,0,0,1-3.38-1.24c-1.8-1-2.7-2.41-2.7-3.78V395.6a14.5,14.5,0,0,0-5.3-11,22.34,22.34,0,0,1-8-17.33,22.5,22.5,0,0,1,45,.18Z" style="fill:#fff;opacity:0.5"></path><path d="M222.29,367.43A12.55,12.55,0,0,1,217,377.66a10.16,10.16,0,0,0-4.12,8.34v61.47a3.18,3.18,0,0,1-3.11,3.22h-.07a3.18,3.18,0,0,1-3.11-3.22V385.84a10,10,0,0,0-4.12-8.19,12.53,12.53,0,0,1-5.28-10.57,12.55,12.55,0,0,1,25.1.35Z" style="fill:#BA68C8"></path><path d="M222.29,367.43A12.55,12.55,0,0,1,217,377.66a10.16,10.16,0,0,0-4.12,8.34v61.47a3.18,3.18,0,0,1-3.11,3.22h-.07a3.18,3.18,0,0,1-3.11-3.22V385.84a10,10,0,0,0-4.12-8.19,12.53,12.53,0,0,1-5.28-10.57,12.55,12.55,0,0,1,25.1.35Z" style="fill:#fff;opacity:0.7000000000000001"></path><path d="M213.26,375.75a5.87,5.87,0,1,1,5.87,5.86A5.87,5.87,0,0,1,213.26,375.75Z" style="fill:#fff;opacity:0.7000000000000001"></path><path d="M215.54,364.07a3.59,3.59,0,1,1,3.59,3.59A3.58,3.58,0,0,1,215.54,364.07Z" style="fill:#fff;opacity:0.7000000000000001"></path><path d="M208.7,358.36a1.78,1.78,0,1,1,1.77,1.77A1.78,1.78,0,0,1,208.7,358.36Z" style="fill:#fff;opacity:0.7000000000000001"></path><path d="M194.52,360.49a4.82,4.82,0,1,1,4.81,4.82A4.81,4.81,0,0,1,194.52,360.49Z" style="fill:#fff;opacity:0.7000000000000001"></path><circle cx="195.97" cy="369.2" r="2.26" style="fill:#fff;opacity:0.7000000000000001"></circle><circle cx="199.07" cy="377.1" r="3.67" style="fill:#fff;opacity:0.7000000000000001"></circle><path d="M204.15,382.65a3,3,0,1,1,3,3A3,3,0,0,1,204.15,382.65Z" style="fill:#fff;opacity:0.7000000000000001"></path><path d="M189.42,364.07a1.54,1.54,0,1,1,1.54,1.54A1.54,1.54,0,0,1,189.42,364.07Z" style="fill:#fff;opacity:0.7000000000000001"></path><path d="M222.94,357.7a2,2,0,1,1,2,2A2,2,0,0,1,222.94,357.7Z" style="fill:#fff;opacity:0.7000000000000001"></path><path d="M225,367.66a2,2,0,1,1,2,2A2.05,2.05,0,0,1,225,367.66Z" style="fill:#fff;opacity:0.7000000000000001"></path><path d="M203.8,369.31a2,2,0,1,1,2,2A2,2,0,0,1,203.8,369.31Z" style="fill:#fff;opacity:0.7000000000000001"></path><path d="M336.44,430.13a12,12,0,0,0-24,0c0,.11,0,.22,0,.33s0,.22,0,.34c.14,1.66,1.31,3.3,3.52,4.57,4.69,2.72,12.31,2.72,17,0,2.2-1.27,3.37-2.91,3.51-4.57,0-.12,0-.22,0-.34S336.45,430.24,336.44,430.13Z" style="fill:#BA68C8"></path><path d="M336.44,430.13a12,12,0,0,0-24,0c0,.11,0,.22,0,.33s0,.22,0,.34c.14,1.66,1.31,3.3,3.52,4.57,4.69,2.72,12.31,2.72,17,0,2.2-1.27,3.37-2.91,3.51-4.57,0-.12,0-.22,0-.34S336.45,430.24,336.44,430.13Z" style="fill:#fff;opacity:0.5"></path><path d="M329.64,419.63h0a12,12,0,0,0-17.24,10.5c0,.11,0,.22,0,.33s0,.22,0,.34c.14,1.66,1.31,3.3,3.52,4.57a15.88,15.88,0,0,0,6,1.89c-3.12-.54-5.14-4-4.18-7.87C318.89,424.93,323.4,418.48,329.64,419.63Z" style="fill:#fff;opacity:0.5;mix-blend-mode:lighten"></path><path d="M336.44,430.8c0-.12,0-.22,0-.34s0-.22,0-.33a12,12,0,0,0-4.08-8.69c1.31,1.34,4.21,6.41,1.05,10.26-2.07,2.54-11.93,6.16-20,1.51a8.21,8.21,0,0,0,2.55,2.16c4.69,2.72,12.31,2.72,17,0C335.13,434.1,336.3,432.46,336.44,430.8Z" style="fill:#BA68C8;opacity:0.2"></path><path d="M324.3,421.14c.54,1.23-.5,2.87-2.31,3.67s-3.72.44-4.26-.78.5-2.87,2.31-3.66S323.76,419.92,324.3,421.14Z" style="fill:#fff;opacity:0.5;mix-blend-mode:lighten"></path><path d="M317.33,426.13a1.58,1.58,0,1,1-1.92-.53A1.42,1.42,0,0,1,317.33,426.13Z" style="fill:#fff;opacity:0.5;mix-blend-mode:lighten"></path><path d="M318.05,439.16a16.56,16.56,0,0,0-33.11,0c0,.16,0,.31,0,.46s0,.31,0,.47c.19,2.29,1.81,4.54,4.85,6.3,6.46,3.73,16.95,3.73,23.43,0,3-1.76,4.64-4,4.83-6.3,0-.16,0-.31,0-.47S318.06,439.32,318.05,439.16Z" style="fill:#BA68C8"></path><path d="M318.05,439.16a16.56,16.56,0,0,0-33.11,0c0,.16,0,.31,0,.46s0,.31,0,.47c.19,2.29,1.81,4.54,4.85,6.3,6.46,3.73,16.95,3.73,23.43,0,3-1.76,4.64-4,4.83-6.3,0-.16,0-.31,0-.47S318.06,439.32,318.05,439.16Z" style="fill:#fff;opacity:0.6000000000000001"></path><path d="M308.68,424.71h0a16.54,16.54,0,0,0-23.74,14.45c0,.16,0,.31,0,.46s0,.31,0,.47c.19,2.29,1.81,4.54,4.85,6.3A22.15,22.15,0,0,0,298.1,449c-4.3-.74-7.08-5.54-5.76-10.83C293.87,432,300.08,423.12,308.68,424.71Z" style="fill:#fff;opacity:0.5;mix-blend-mode:lighten"></path><path d="M318.05,440.09c0-.16,0-.31,0-.47s0-.3,0-.46a16.49,16.49,0,0,0-5.62-12c1.8,1.85,5.8,8.82,1.45,14.13-2.86,3.5-16.43,8.48-27.61,2.08a11.56,11.56,0,0,0,3.52,3c6.46,3.73,16.95,3.73,23.43,0C316.25,444.63,317.86,442.38,318.05,440.09Z" style="fill:#BA68C8;opacity:0.1"></path><path d="M301.33,426.79c.74,1.69-.69,3.95-3.18,5s-5.13.62-5.87-1.07.69-3.94,3.18-5S300.59,425.1,301.33,426.79Z" style="fill:#fff;opacity:0.30000000000000004;mix-blend-mode:lighten"></path><path d="M291.74,433.66a2.18,2.18,0,1,1-2.65-.73A2,2,0,0,1,291.74,433.66Z" style="fill:#fff;opacity:0.30000000000000004;mix-blend-mode:lighten"></path><path d="M288.53,445.05a20.55,20.55,0,0,0-41.08,0,5.43,5.43,0,0,0,0,.57,5.33,5.33,0,0,0,0,.57c.23,2.85,2.23,5.64,6,7.82,8,4.64,21,4.64,29.08,0,3.75-2.18,5.76-5,6-7.82a5.33,5.33,0,0,0,0-.57A5.43,5.43,0,0,0,288.53,445.05Z" style="fill:#BA68C8"></path><path d="M288.53,445.05a20.55,20.55,0,0,0-41.08,0,5.43,5.43,0,0,0,0,.57,5.33,5.33,0,0,0,0,.57c.23,2.85,2.23,5.64,6,7.82,8,4.64,21,4.64,29.08,0,3.75-2.18,5.76-5,6-7.82a5.33,5.33,0,0,0,0-.57A5.43,5.43,0,0,0,288.53,445.05Z" style="fill:#fff;opacity:0.8"></path><path d="M276.9,427.11h0a20.52,20.52,0,0,0-29.45,17.94,5.43,5.43,0,0,0,0,.57,5.33,5.33,0,0,0,0,.57c.23,2.85,2.23,5.64,6,7.82a27.31,27.31,0,0,0,10.31,3.22c-5.33-.92-8.78-6.87-7.14-13.44C258.53,436.16,266.24,425.14,276.9,427.11Z" style="fill:#fff;opacity:0.30000000000000004;mix-blend-mode:lighten"></path><path d="M288.53,446.19a5.33,5.33,0,0,0,0-.57,5.43,5.43,0,0,0,0-.57,20.43,20.43,0,0,0-7-14.85c2.24,2.29,7.2,10.95,1.81,17.54-3.55,4.34-20.4,10.53-34.26,2.57a14.2,14.2,0,0,0,4.36,3.7c8,4.64,21,4.64,29.08,0C286.29,451.83,288.3,449,288.53,446.19Z" style="fill:#BA68C8;opacity:0.1"></path><path d="M267.78,429.69c.92,2.1-.85,4.9-3.95,6.26s-6.36.77-7.28-1.33.85-4.89,3.95-6.25S266.86,427.6,267.78,429.69Z" style="fill:#fff;opacity:0.30000000000000004;mix-blend-mode:lighten"></path><path d="M255.88,438.22a2.7,2.7,0,1,1-3.29-.91A2.45,2.45,0,0,1,255.88,438.22Z" style="fill:#fff;opacity:0.30000000000000004;mix-blend-mode:lighten"></path><path d="M346.61,433a7.26,7.26,0,0,0-14.52,0,2,2,0,0,0,0,.4,3.74,3.74,0,0,0,2.12,2.77,11.44,11.44,0,0,0,10.29,0,3.75,3.75,0,0,0,2.11-2.77,2,2,0,0,0,0-.4Z" style="fill:#BA68C8"></path><path d="M346.61,433a7.26,7.26,0,0,0-14.52,0,2,2,0,0,0,0,.4,3.74,3.74,0,0,0,2.12,2.77,11.44,11.44,0,0,0,10.29,0,3.75,3.75,0,0,0,2.11-2.77,2,2,0,0,0,0-.4Z" style="fill:#fff;opacity:0.2"></path><path d="M342.5,426.6h0A7.26,7.26,0,0,0,332.09,433a2,2,0,0,0,0,.4,3.74,3.74,0,0,0,2.12,2.77,9.83,9.83,0,0,0,3.65,1.13c-1.88-.32-3.1-2.43-2.53-4.75C336,429.8,338.73,425.91,342.5,426.6Z" style="fill:#fff;opacity:0.5;mix-blend-mode:lighten"></path><path d="M346.61,433.35a2,2,0,0,0,0-.4,7.22,7.22,0,0,0-2.46-5.25c.79.81,2.54,3.87.64,6.2-1.26,1.53-7.22,3.72-12.12.91a5.23,5.23,0,0,0,1.54,1.31,11.44,11.44,0,0,0,10.29,0A3.75,3.75,0,0,0,346.61,433.35Z" style="opacity:0.05"></path><path d="M339.28,427.52c.32.74-.3,1.73-1.4,2.21s-2.25.27-2.57-.47.3-1.73,1.39-2.21S339,426.78,339.28,427.52Z" style="fill:#fff;opacity:0.30000000000000004;mix-blend-mode:lighten"></path><path d="M335.07,430.53a1,1,0,0,1-1.71.75,1,1,0,0,1,1.71-.75Z" style="fill:#fff;opacity:0.30000000000000004;mix-blend-mode:lighten"></path><path d="M84.78,424.2a12,12,0,0,1,24,0c0,.12,0,.22,0,.34s0,.22,0,.33c-.13,1.67-1.31,3.3-3.52,4.58-4.69,2.71-12.31,2.71-17,0-2.2-1.28-3.37-2.91-3.51-4.58,0-.11,0-.22,0-.33S84.77,424.32,84.78,424.2Z" style="fill:#BA68C8"></path><path d="M84.78,424.2a12,12,0,0,1,24,0c0,.12,0,.22,0,.34s0,.22,0,.33c-.13,1.67-1.31,3.3-3.52,4.58-4.69,2.71-12.31,2.71-17,0-2.2-1.28-3.37-2.91-3.51-4.58,0-.11,0-.22,0-.33S84.77,424.32,84.78,424.2Z" style="fill:#fff;opacity:0.5"></path><path d="M91.58,413.71h0a12,12,0,0,1,17.24,10.49c0,.12,0,.22,0,.34s0,.22,0,.33c-.13,1.67-1.31,3.3-3.52,4.58a15.87,15.87,0,0,1-6,1.88c3.12-.54,5.14-4,4.18-7.86C102.34,419,97.83,412.56,91.58,413.71Z" style="fill:#fff;opacity:0.5;mix-blend-mode:lighten"></path><path d="M84.78,424.87c0-.11,0-.22,0-.33s0-.22,0-.34a12,12,0,0,1,4.08-8.69c-1.3,1.35-4.21,6.41-1,10.27,2.08,2.54,11.93,6.16,20,1.5a8.23,8.23,0,0,1-2.55,2.17c-4.69,2.71-12.31,2.71-17,0C86.09,428.17,84.92,426.54,84.78,424.87Z" style="fill:#BA68C8;opacity:0.2"></path><path d="M96.92,415.22c-.53,1.22.5,2.86,2.31,3.66s3.72.45,4.26-.78-.49-2.86-2.31-3.66S97.46,414,96.92,415.22Z" style="fill:#fff;opacity:0.30000000000000004;mix-blend-mode:lighten"></path><path d="M103.89,420.21a1.58,1.58,0,1,0,1.92-.54A1.43,1.43,0,0,0,103.89,420.21Z" style="fill:#fff;opacity:0.30000000000000004;mix-blend-mode:lighten"></path><path d="M120.73,423a17.44,17.44,0,0,1,34.87,0,3.77,3.77,0,0,1,0,.48,4,4,0,0,1,0,.49c-.19,2.41-1.89,4.78-5.1,6.63-6.8,3.94-17.86,3.94-24.68,0-3.19-1.85-4.89-4.22-5.09-6.63,0-.17,0-.32,0-.49S120.72,423.11,120.73,423Z" style="fill:#BA68C8"></path><path d="M120.73,423a17.44,17.44,0,0,1,34.87,0,3.77,3.77,0,0,1,0,.48,4,4,0,0,1,0,.49c-.19,2.41-1.89,4.78-5.1,6.63-6.8,3.94-17.86,3.94-24.68,0-3.19-1.85-4.89-4.22-5.09-6.63,0-.17,0-.32,0-.49S120.72,423.11,120.73,423Z" style="fill:#fff;opacity:0.7000000000000001"></path><path d="M130.6,407.72h0a17.42,17.42,0,0,1,25,15.23,3.77,3.77,0,0,1,0,.48,4,4,0,0,1,0,.49c-.19,2.41-1.89,4.78-5.1,6.63a23.23,23.23,0,0,1-8.75,2.74c4.52-.79,7.45-5.84,6.06-11.42C146.2,415.4,139.66,406.05,130.6,407.72Z" style="fill:#fff;opacity:0.30000000000000004;mix-blend-mode:lighten"></path><path d="M120.73,423.92c0-.17,0-.32,0-.49s0-.32,0-.48a17.36,17.36,0,0,1,5.92-12.61c-1.89,2-6.11,9.29-1.53,14.89,3,3.68,17.31,8.94,29.08,2.18a12,12,0,0,1-3.7,3.14c-6.8,3.94-17.86,3.94-24.68,0C122.63,428.7,120.93,426.33,120.73,423.92Z" style="fill:#BA68C8;opacity:0.1"></path><path d="M138.35,409.91c-.78,1.78.72,4.16,3.35,5.31s5.39.66,6.17-1.12-.72-4.16-3.35-5.31S139.13,408.14,138.35,409.91Z" style="fill:#fff;opacity:0.5;mix-blend-mode:lighten"></path><path d="M148.45,417.15a2.29,2.29,0,1,0,2.79-.77A2.06,2.06,0,0,0,148.45,417.15Z" style="fill:#fff;opacity:0.5;mix-blend-mode:lighten"></path><path d="M105.38,433.18a16.56,16.56,0,0,1,33.1,0,3.54,3.54,0,0,1,0,.46,3.46,3.46,0,0,1,0,.46c-.19,2.3-1.8,4.55-4.84,6.31-6.46,3.73-17,3.73-23.43,0-3-1.76-4.64-4-4.83-6.31a3.46,3.46,0,0,1,0-.46A3.54,3.54,0,0,1,105.38,433.18Z" style="fill:#BA68C8"></path><path d="M105.38,433.18a16.56,16.56,0,0,1,33.1,0,3.54,3.54,0,0,1,0,.46,3.46,3.46,0,0,1,0,.46c-.19,2.3-1.8,4.55-4.84,6.31-6.46,3.73-17,3.73-23.43,0-3-1.76-4.64-4-4.83-6.31a3.46,3.46,0,0,1,0-.46A3.54,3.54,0,0,1,105.38,433.18Z" style="fill:#fff;opacity:0.6000000000000001"></path><path d="M114.75,418.73h0a16.54,16.54,0,0,1,23.73,14.45,3.54,3.54,0,0,1,0,.46,3.46,3.46,0,0,1,0,.46c-.19,2.3-1.8,4.55-4.84,6.31a22.15,22.15,0,0,1-8.31,2.59c4.3-.74,7.08-5.54,5.75-10.84C129.55,426,123.34,417.14,114.75,418.73Z" style="fill:#fff;opacity:0.5;mix-blend-mode:lighten"></path><path d="M105.38,434.1a3.46,3.46,0,0,1,0-.46,3.54,3.54,0,0,1,0-.46,16.45,16.45,0,0,1,5.62-12c-1.8,1.85-5.8,8.82-1.45,14.13,2.86,3.5,16.43,8.48,27.6,2.07a11.65,11.65,0,0,1-3.51,3c-6.46,3.73-17,3.73-23.43,0C107.18,438.65,105.57,436.4,105.38,434.1Z" style="fill:#BA68C8;opacity:0.15"></path><path d="M122.1,420.81c-.74,1.69.68,3.95,3.18,5s5.12.62,5.86-1.07-.68-3.94-3.18-5S122.84,419.12,122.1,420.81Z" style="fill:#fff;opacity:0.30000000000000004;mix-blend-mode:lighten"></path><path d="M131.69,427.68a2.17,2.17,0,1,0,2.65-.74A2,2,0,0,0,131.69,427.68Z" style="fill:#fff;opacity:0.30000000000000004;mix-blend-mode:lighten"></path><path d="M136.06,442.57a20.55,20.55,0,0,1,41.09,0c0,.2,0,.38,0,.57s0,.38,0,.57c-.24,2.85-2.24,5.64-6,7.82-8,4.64-21,4.64-29.07,0-3.76-2.18-5.77-5-6-7.82a5.33,5.33,0,0,1,0-.57A5.52,5.52,0,0,1,136.06,442.57Z" style="fill:#BA68C8"></path><path d="M136.06,442.57a20.55,20.55,0,0,1,41.09,0c0,.2,0,.38,0,.57s0,.38,0,.57c-.24,2.85-2.24,5.64-6,7.82-8,4.64-21,4.64-29.07,0-3.76-2.18-5.77-5-6-7.82a5.33,5.33,0,0,1,0-.57A5.52,5.52,0,0,1,136.06,442.57Z" style="fill:#fff;opacity:0.8"></path><path d="M147.69,424.64h0a20.33,20.33,0,0,1,8.91-2.06,20.56,20.56,0,0,1,20.55,20c0,.2,0,.38,0,.57s0,.38,0,.57c-.24,2.85-2.24,5.64-6,7.82a27.13,27.13,0,0,1-10.31,3.22c5.33-.92,8.78-6.87,7.14-13.44C166.06,433.68,158.36,422.66,147.69,424.64Z" style="fill:#fff;opacity:0.30000000000000004;mix-blend-mode:lighten"></path><path d="M136.06,443.71a5.33,5.33,0,0,1,0-.57,5.52,5.52,0,0,1,0-.57,20.43,20.43,0,0,1,7-14.85c-2.23,2.3-7.2,10.95-1.81,17.54,3.55,4.34,20.4,10.53,34.26,2.57a14.06,14.06,0,0,1-4.36,3.7c-8,4.64-21,4.64-29.07,0C138.3,449.35,136.29,446.56,136.06,443.71Z" style="fill:#BA68C8;opacity:0.1"></path><path d="M156.81,427.22c-.92,2.09.85,4.89,3.95,6.25s6.36.77,7.28-1.32-.85-4.9-3.95-6.26S157.73,425.12,156.81,427.22Z" style="fill:#fff;opacity:0.30000000000000004;mix-blend-mode:lighten"></path><path d="M168.72,435.74a2.7,2.7,0,1,0,3.29-.91A2.44,2.44,0,0,0,168.72,435.74Z" style="fill:#fff;opacity:0.30000000000000004;mix-blend-mode:lighten"></path><path d="M251.17,446.26a18.76,18.76,0,0,0-37.51,0,6.77,6.77,0,0,0,0,1c.21,2.6,2,5.15,5.49,7.14,7.32,4.23,19.21,4.23,26.55,0,3.43-2,5.26-4.54,5.47-7.14,0-.18,0-.34,0-.52S251.18,446.44,251.17,446.26Z" style="fill:#BA68C8"></path><path d="M251.17,446.26a18.76,18.76,0,0,0-37.51,0,6.77,6.77,0,0,0,0,1c.21,2.6,2,5.15,5.49,7.14,7.32,4.23,19.21,4.23,26.55,0,3.43-2,5.26-4.54,5.47-7.14,0-.18,0-.34,0-.52S251.18,446.44,251.17,446.26Z" style="fill:#fff;opacity:0.9"></path><path d="M240.55,429.89h0a18.72,18.72,0,0,0-26.89,16.37,6.77,6.77,0,0,0,0,1c.21,2.6,2,5.15,5.49,7.14a24.93,24.93,0,0,0,9.41,2.94c-4.86-.84-8-6.27-6.52-12.27C223.78,438.15,230.82,428.09,240.55,429.89Z" style="fill:#fff;opacity:0.5;mix-blend-mode:lighten"></path><path d="M251.17,447.3c0-.18,0-.34,0-.52s0-.34,0-.52a18.65,18.65,0,0,0-6.37-13.56c2,2.1,6.57,10,1.64,16-3.24,4-18.61,9.61-31.27,2.34a12.83,12.83,0,0,0,4,3.38c7.32,4.23,19.21,4.23,26.55,0C249.13,452.45,251,449.9,251.17,447.3Z" style="fill:#BA68C8;opacity:0.1"></path><ellipse cx="227.1" cy="434.49" rx="5.6" ry="3.78" transform="translate(-155.54 127.98) rotate(-23.71)" style="fill:#fff;opacity:0.5;mix-blend-mode:lighten"></ellipse><path d="M221.36,440a2.46,2.46,0,1,1-3-.83A2.24,2.24,0,0,1,221.36,440Z" style="fill:#fff;opacity:0.5;mix-blend-mode:lighten"></path><path d="M172.84,448.3a17.84,17.84,0,0,1,35.67,0c0,.17,0,.32,0,.49s0,.33,0,.5c-.21,2.47-1.95,4.9-5.22,6.79-7,4-18.27,4-25.25,0-3.26-1.89-5-4.32-5.2-6.79a4.1,4.1,0,0,1,0-.5A4,4,0,0,1,172.84,448.3Z" style="fill:#BA68C8"></path><path d="M172.84,448.3a17.84,17.84,0,0,1,35.67,0c0,.17,0,.32,0,.49s0,.33,0,.5c-.21,2.47-1.95,4.9-5.22,6.79-7,4-18.27,4-25.25,0-3.26-1.89-5-4.32-5.2-6.79a4.1,4.1,0,0,1,0-.5A4,4,0,0,1,172.84,448.3Z" style="fill:#fff;opacity:0.9"></path><path d="M182.93,432.73h0a17.61,17.61,0,0,1,7.74-1.79,17.84,17.84,0,0,1,17.84,17.36c0,.17,0,.32,0,.49s0,.33,0,.5c-.21,2.47-1.95,4.9-5.22,6.79a23.67,23.67,0,0,1-9,2.79c4.63-.79,7.63-6,6.21-11.67C198.88,440.58,192.19,431,182.93,432.73Z" style="fill:#fff;opacity:0.5;mix-blend-mode:lighten"></path><path d="M172.84,449.29a4.1,4.1,0,0,1,0-.5,4,4,0,0,1,0-.49,17.75,17.75,0,0,1,6-12.9c-1.94,2-6.25,9.51-1.56,15.23,3.08,3.77,17.7,9.14,29.74,2.24a12.53,12.53,0,0,1-3.78,3.21c-7,4-18.27,4-25.25,0C174.78,454.19,173,451.76,172.84,449.29Z" style="fill:#BA68C8;opacity:0.1"></path><path d="M190.85,435c-.8,1.81.74,4.25,3.43,5.43s5.52.66,6.32-1.15-.74-4.25-3.43-5.44S191.65,433.15,190.85,435Z" style="fill:#fff;opacity:0.5;mix-blend-mode:lighten"></path><path d="M201.19,442.37a2.34,2.34,0,1,0,2.85-.79A2.12,2.12,0,0,0,201.19,442.37Z" style="fill:#fff;opacity:0.5;mix-blend-mode:lighten"></path><path d="M219.12,454.53a7.27,7.27,0,0,0-14.53,0,1.48,1.48,0,0,0,0,.21,1.34,1.34,0,0,0,0,.2,3.71,3.71,0,0,0,2.13,2.76,11.35,11.35,0,0,0,10.28,0,3.71,3.71,0,0,0,2.12-2.76v-.41Z" style="fill:#BA68C8"></path><path d="M219.12,454.53a7.27,7.27,0,0,0-14.53,0,1.48,1.48,0,0,0,0,.21,1.34,1.34,0,0,0,0,.2,3.71,3.71,0,0,0,2.13,2.76,11.35,11.35,0,0,0,10.28,0,3.71,3.71,0,0,0,2.12-2.76v-.41Z" style="fill:#fff;opacity:0.9"></path><path d="M215,448.19h0a7.27,7.27,0,0,0-10.42,6.34,1.48,1.48,0,0,0,0,.21,1.34,1.34,0,0,0,0,.2,3.71,3.71,0,0,0,2.13,2.76,9.6,9.6,0,0,0,3.64,1.14c-1.88-.32-3.1-2.43-2.52-4.75C208.51,451.39,211.24,447.5,215,448.19Z" style="fill:#fff;opacity:0.6000000000000001;mix-blend-mode:lighten"></path><path d="M219.12,454.94v-.41a7.24,7.24,0,0,0-2.47-5.25c.79.82,2.55,3.87.64,6.21-1.26,1.53-7.21,3.72-12.11.91a5,5,0,0,0,1.54,1.3,11.35,11.35,0,0,0,10.28,0A3.71,3.71,0,0,0,219.12,454.94Z" style="fill:#BA68C8;opacity:0.1"></path><path d="M211.78,449.11c.33.74-.3,1.73-1.39,2.21s-2.25.27-2.58-.47.3-1.73,1.4-2.21S211.46,448.36,211.78,449.11Z" style="fill:#fff;opacity:0.5;mix-blend-mode:lighten"></path><path d="M207.57,452.12a1,1,0,0,1-1.71.75.86.86,0,0,1,.55-1.07A.85.85,0,0,1,207.57,452.12Z" style="fill:#fff;opacity:0.5;mix-blend-mode:lighten"></path><path d="M74.61,427a7.26,7.26,0,0,1,14.52,0,1.34,1.34,0,0,1,0,.2,1.48,1.48,0,0,1,0,.21A3.73,3.73,0,0,1,87,430.19a11.35,11.35,0,0,1-10.28,0,3.73,3.73,0,0,1-2.12-2.76,1.48,1.48,0,0,1,0-.21A1.34,1.34,0,0,1,74.61,427Z" style="fill:#BA68C8"></path><path d="M74.61,427a7.26,7.26,0,0,1,14.52,0,1.34,1.34,0,0,1,0,.2,1.48,1.48,0,0,1,0,.21A3.73,3.73,0,0,1,87,430.19a11.35,11.35,0,0,1-10.28,0,3.73,3.73,0,0,1-2.12-2.76,1.48,1.48,0,0,1,0-.21A1.34,1.34,0,0,1,74.61,427Z" style="fill:#fff;opacity:0.2"></path><path d="M78.72,420.68h0A7.24,7.24,0,0,1,89.13,427a1.34,1.34,0,0,1,0,.2,1.48,1.48,0,0,1,0,.21A3.73,3.73,0,0,1,87,430.19a9.65,9.65,0,0,1-3.65,1.14c1.89-.33,3.11-2.43,2.53-4.76C85.21,423.88,82.49,420,78.72,420.68Z" style="fill:#fff;opacity:0.5;mix-blend-mode:lighten"></path><path d="M74.61,427.43a1.48,1.48,0,0,1,0-.21,1.34,1.34,0,0,1,0-.2,7.23,7.23,0,0,1,2.46-5.25c-.79.81-2.54,3.87-.63,6.2,1.25,1.54,7.21,3.73,12.11.91A5.09,5.09,0,0,1,87,430.19a11.35,11.35,0,0,1-10.28,0A3.73,3.73,0,0,1,74.61,427.43Z" style="opacity:0.05"></path><path d="M81.94,421.59c-.32.74.3,1.73,1.4,2.21s2.25.28,2.57-.46-.3-1.74-1.39-2.22S82.27,420.85,81.94,421.59Z" style="fill:#fff;opacity:0.30000000000000004;mix-blend-mode:lighten"></path><path d="M86.15,424.61a1,1,0,1,0,1.17-.33A.87.87,0,0,0,86.15,424.61Z" style="fill:#fff;opacity:0.30000000000000004;mix-blend-mode:lighten"></path></g><g id="freepik--rocket--inject-190"><path d="M294.82,291.46,281.27,288l-13.55,3.51s-1.63,7.26.15,18.63,9.69,22.75,13.4,22.75,11.63-11.38,13.4-22.75S294.82,291.46,294.82,291.46Z" style="fill:#BA68C8"></path><path d="M294.82,291.46,281.27,288l-13.55,3.51s-1.63,7.26.15,18.63,9.69,22.75,13.4,22.75,11.63-11.38,13.4-22.75S294.82,291.46,294.82,291.46Z" style="fill:#fff;opacity:0.85"></path><path d="M290.14,293.1H271.59c-2.65,16,5.86,28.31,9.27,28.31S292.79,309.12,290.14,293.1Z" style="fill:#BA68C8"></path><path d="M280.86,293.1H284a14.08,14.08,0,0,1,1.72,8.56c-.38,4.32-3,9.94-4.9,9.94s-4.51-5.62-4.9-9.94a14,14,0,0,1,1.73-8.56h3.17" style="fill:#fff"></path><path d="M293.16,276.3l-1.49-6.38h-20.8l-1.49,6.38a7.72,7.72,0,0,0,3.46,6.79,12.67,12.67,0,0,0,2.92,1.59,15.66,15.66,0,0,0,11.08,0,12.1,12.1,0,0,0,2.85-1.56A7.73,7.73,0,0,0,293.16,276.3Z" style="fill:#BA68C8"></path><path d="M293.16,276.3l-1.49-6.38h-20.8l-1.49,6.38a7.72,7.72,0,0,0,3.46,6.79,12.67,12.67,0,0,0,2.92,1.59,15.66,15.66,0,0,0,11.08,0,12.1,12.1,0,0,0,2.85-1.56A7.73,7.73,0,0,0,293.16,276.3Z" style="fill:#fff;opacity:0.5"></path><path d="M293.45,277.56l.15.63.64,2.75a8.51,8.51,0,0,1-3.8,7.07,13.58,13.58,0,0,1-3.13,1.72,17.1,17.1,0,0,1-12,0,13.74,13.74,0,0,1-3.2-1.74,8.49,8.49,0,0,1-3.79-7.1l-1.75,7.48h0c0,2.52,1.44,5,4.31,7a15.89,15.89,0,0,0,3.75,1.82,21.33,21.33,0,0,0,13.38,0,16,16,0,0,0,3.69-1.8c2.87-1.92,4.31-4.44,4.31-7Z" style="fill:#BA68C8"></path><path d="M293.45,277.56l.15.63.64,2.75a8.51,8.51,0,0,1-3.8,7.07,13.58,13.58,0,0,1-3.13,1.72,17.1,17.1,0,0,1-12,0,13.74,13.74,0,0,1-3.2-1.74,8.49,8.49,0,0,1-3.79-7.1l-1.75,7.48h0c0,2.52,1.44,5,4.31,7a15.89,15.89,0,0,0,3.75,1.82,21.33,21.33,0,0,0,13.38,0,16,16,0,0,0,3.69-1.8c2.87-1.92,4.31-4.44,4.31-7Z" style="fill:#fff;opacity:0.5"></path><path d="M293.6,278.19l-.15-.63-.29-1.26a7.73,7.73,0,0,1-3.47,6.79,12.1,12.1,0,0,1-2.85,1.56,15.66,15.66,0,0,1-11.08,0,12.67,12.67,0,0,1-2.92-1.59,7.72,7.72,0,0,1-3.46-6.79l-1.08,4.61a8.49,8.49,0,0,0,3.79,7.1,13.74,13.74,0,0,0,3.2,1.74,17.1,17.1,0,0,0,12,0,13.58,13.58,0,0,0,3.13-1.72,8.51,8.51,0,0,0,3.8-7.07Z" style="fill:#455a64"></path><path d="M281.25,282.22c9.39,0,12.48-3.48,12.48-3.48l-.13-.55-.15-.63-.29-1.26-1.49-6.38h-20.8l-1.49,6.38-.58,2.45S271.85,282.22,281.25,282.22Z" style="opacity:0.15"></path><path d="M295.41,108.18a10.69,10.69,0,0,0-.35-2.64c-1.81-7.76-7-15.09-9.42-18.8a41.43,41.43,0,0,0-3.48-4.42,1.54,1.54,0,0,0-.9-.26,1.51,1.51,0,0,0-.88.3,41.74,41.74,0,0,0-3.31,4.54c-2.31,3.81-8,11.34-9.5,19.16a10.71,10.71,0,0,0-.16,2.65s0,161.42,0,161v.13c0,.09,0,.17,0,.26h0s0,.05,0,.08c.18,1.92,1.53,3.81,4.07,5.28,5.47,3.16,14.35,3.16,19.83,0,2.76-1.6,4.13-3.7,4.1-5.79Z" style="fill:#37474f"></path><path d="M291.7,191.48c-5.69,3.29-14.92,3.29-20.61,0a8.89,8.89,0,0,1-3.69-3.64v2.75a8.78,8.78,0,0,0,3.69,3.64c5.69,3.29,14.92,3.29,20.61,0a9,9,0,0,0,3.71-3.64v-2.76A9,9,0,0,1,291.7,191.48Z" style="fill:#BA68C8"></path><path d="M291.7,242.48c-5.69,3.29-14.92,3.29-20.61,0a8.84,8.84,0,0,1-3.7-3.66v5.5a8.84,8.84,0,0,0,3.7,3.66c5.69,3.29,14.92,3.29,20.61,0a9,9,0,0,0,3.71-3.64v-5.51A9,9,0,0,1,291.7,242.48Z" style="fill:#BA68C8"></path><path d="M291.7,175.65c-5.69,3.29-14.92,3.29-20.61,0a8.79,8.79,0,0,1-3.68-3.63c0,.91,0,1.83,0,2.75a9,9,0,0,0,3.69,3.64c5.69,3.28,14.92,3.28,20.61,0a9.09,9.09,0,0,0,3.71-3.65V172A9,9,0,0,1,291.7,175.65Z" style="fill:#BA68C8"></path><path d="M291.7,122c-5.69,3.29-14.92,3.29-20.61,0a8.83,8.83,0,0,1-3.68-3.62v5.5a8.9,8.9,0,0,0,3.68,3.63c5.69,3.28,14.92,3.28,20.61,0a9,9,0,0,0,3.71-3.65v-5.5A9,9,0,0,1,291.7,122Z" style="fill:#BA68C8"></path><path d="M289.31,92.43a5.17,5.17,0,0,1-2.06,2,13,13,0,0,1-11.7,0,5.1,5.1,0,0,1-2-2c1.4-2.25,2.71-4.17,3.56-5.57a43,43,0,0,1,3.31-4.55,1.54,1.54,0,0,1,.88-.29,1.61,1.61,0,0,1,.9.26,41,41,0,0,1,3.48,4.41C286.59,88.16,287.93,90.12,289.31,92.43Z" style="fill:#BA68C8"></path><path d="M291.31,275.49c2.76-1.6,4.13-3.7,4.1-5.79V108.18a10.69,10.69,0,0,0-.35-2.64c-1.81-7.76-7-15.09-9.42-18.8a41.43,41.43,0,0,0-3.48-4.42,1.58,1.58,0,0,0-.89-.26c1.43.08,5.2,21.7,5.2,30.22v165A17.59,17.59,0,0,0,291.31,275.49Z" style="opacity:0.30000000000000004"></path><path d="M257.66,289.24c-2.77,9-5.61,18-8.62,26.93a4.73,4.73,0,0,0,1.64,4.85,25.88,25.88,0,0,0,17.19,6.11,26.65,26.65,0,0,0,17.2-6.35,4.66,4.66,0,0,0,1.63-4.8c-3.06-8.78-5.88-17.65-8.62-26.54Z" style="fill:#455a64"></path><path d="M267.87,320.1a26.72,26.72,0,0,1-18-6.41l-.84,2.48a4.73,4.73,0,0,0,1.64,4.85,26,26,0,0,0,17.19,6.11,26.8,26.8,0,0,0,17.2-6.35,4.66,4.66,0,0,0,1.63-4.8c-.33-1-.49-1.44-.83-2.41C280.93,317.94,274.35,319.88,267.87,320.1Z" style="fill:#263238"></path><path d="M267.87,299.38a35.06,35.06,0,0,0,12.66-2.1c-1-3.09-1.47-4.66-2.45-7.84l-9.19-.09h-1l-1,0-9.19-.09c-1,3.2-1.46,4.78-2.44,7.9A34.64,34.64,0,0,0,267.87,299.38Z" style="fill:#263238"></path><g style="opacity:0.5"><path d="M261.36,289.28c-.32,2.54-.73,5.84-1.16,9.33a30.37,30.37,0,0,1-3.41-.91c.59-3.36.89-5.05,1.48-8.45Z" style="fill:#455a64"></path></g><g style="opacity:0.5"><path d="M285.07,320.78a26.71,26.71,0,0,1-17.2,6.34c-.43,0-.85,0-1.27,0l-1.22-.07-.62-.06-.94-.1-.59-.1-.59-.1-1-.19-.18,0c-.38-.09-.75-.18-1.1-.28s-.88-.25-1.3-.39l-.73-.26c-.32-.11-.64-.24-.94-.37-.58-.24-1.16-.5-1.69-.76l-.4-.21-.46-.24-.65-.38-.68-.41-.63-.42-.59-.4c.45-2.39.67-3.59,1.11-6a25.66,25.66,0,0,0,4.22,2c-.16,1.17-.36,2.09-.32,2.26C259,326.68,273.44,327.76,285.07,320.78Z" style="fill:#455a64"></path></g><path d="M260.2,298.61c-.84,6.58-1.67,13.16-2.55,19.73a25.66,25.66,0,0,1-4.22-2q1.69-9.31,3.36-18.62A30.37,30.37,0,0,0,260.2,298.61Z" style="fill:#fff;opacity:0.1"></path><path d="M274.88,112.27a28,28,0,0,0-.56-6.83C270,85.33,257.53,67.42,251,58a29.37,29.37,0,0,0-5-5.59,4.13,4.13,0,0,0-4.66,0,25.12,25.12,0,0,0-5,5.59c-6.14,9.71-19.06,27.34-23.35,47.45a28,28,0,0,0-.56,6.83l3.9,171.92h0c0,5.6,5.13,11.2,15.38,14.25a42.15,42.15,0,0,0,23.92,0c10.25-3.05,15.38-8.65,15.38-14.25h0Z" style="fill:#BA68C8"></path><g style="opacity:0.15"><path d="M243.26,162.55a1.33,1.33,0,0,1-1.33-1.33V131.8a1.33,1.33,0,1,1,2.66,0v29.42A1.32,1.32,0,0,1,243.26,162.55Z"></path><path d="M251,161.93a1.34,1.34,0,0,1-1.33-1.33V131.18a1.33,1.33,0,1,1,2.66,0V160.6A1.34,1.34,0,0,1,251,161.93Z"></path><path d="M258.31,160.12a1.32,1.32,0,0,1-1.33-1.33V129.37a1.33,1.33,0,1,1,2.66,0v29.42A1.33,1.33,0,0,1,258.31,160.12Z"></path><path d="M264.86,157.37a1.32,1.32,0,0,1-1.33-1.33V126.62a1.33,1.33,0,1,1,2.66,0V156A1.33,1.33,0,0,1,264.86,157.37Z"></path><path d="M270.28,153.91a1.33,1.33,0,0,1-1.33-1.33V123.16a1.33,1.33,0,1,1,2.66,0v29.42A1.33,1.33,0,0,1,270.28,153.91Z"></path><path d="M235.54,161.93a1.34,1.34,0,0,0,1.33-1.33V131.18a1.33,1.33,0,1,0-2.66,0V160.6A1.33,1.33,0,0,0,235.54,161.93Z"></path><path d="M228.22,160.12a1.32,1.32,0,0,0,1.33-1.33V129.37a1.33,1.33,0,1,0-2.66,0v29.42A1.33,1.33,0,0,0,228.22,160.12Z"></path><path d="M221.67,157.37A1.32,1.32,0,0,0,223,156V126.62a1.33,1.33,0,0,0-2.66,0V156A1.33,1.33,0,0,0,221.67,157.37Z"></path><path d="M216.25,153.91a1.33,1.33,0,0,0,1.33-1.33V123.16a1.33,1.33,0,0,0-2.66,0v29.42A1.32,1.32,0,0,0,216.25,153.91Z"></path></g><path d="M263,126.3c0,16.69-1.25,102.74-2.2,170.16,6.76-3.18,10.14-7.72,10.14-12.27h0l3.9-171.92a28,28,0,0,0-.56-6.83C270,85.33,257.53,67.42,251,58c-.54-.78-1.21-1.64-1.89-2.44C257.77,72,263,99.53,263,126.3Z" style="fill:#fff;opacity:0.5"></path><path d="M246,52.4a4.13,4.13,0,0,0-4.66,0,25.12,25.12,0,0,0-5,5.59c-6.14,9.71-19.06,27.34-23.35,47.45a28,28,0,0,0-.56,6.83l3.9,171.92c0,4.93,4,9.86,11.94,13.05V176.91c0-59.21,1.67-76.36,4.28-91.07S243,50.84,246,52.4Z" style="opacity:0.2"></path><path d="M219.58,117.22c13.17,7.61,34.53,7.61,47.7,0a22.55,22.55,0,0,0,7.61-6.74,27.5,27.5,0,0,0-.57-5c-.19-.88-.39-1.74-.61-2.6a24.48,24.48,0,0,1-6.43,5.18c-13.17,7.6-34.53,7.6-47.7,0a24.8,24.8,0,0,1-6.1-4.82c-.18.74-.36,1.49-.52,2.24a28,28,0,0,0-.57,5.63A23.19,23.19,0,0,0,219.58,117.22Z" style="fill:#455a64"></path><path d="M212.6,107.73c0,.24-.06.47-.08.7s-.06.7-.08,1c0,.11,0,.23,0,.35,0,.41,0,.83,0,1.24a23.19,23.19,0,0,0,7.19,6.15,39.86,39.86,0,0,0,10,4c.14-3.2.29-6.24.45-9.09A40.71,40.71,0,0,1,219.58,108a24.8,24.8,0,0,1-6.1-4.82c-.18.74-.36,1.49-.52,2.24-.1.5-.19,1-.27,1.52C212.65,107.22,212.63,107.48,212.6,107.73Z" style="fill:#37474f"></path><path d="M222.81,333l-13.55-3.51L195.71,333s-1.62,7.27.15,18.64,9.69,22.75,13.4,22.75,11.63-11.38,13.4-22.75S222.81,333,222.81,333Z" style="fill:#BA68C8"></path><path d="M222.81,333l-13.55-3.51L195.71,333s-1.62,7.27.15,18.64,9.69,22.75,13.4,22.75,11.63-11.38,13.4-22.75S222.81,333,222.81,333Z" style="fill:#fff;opacity:0.85"></path><path d="M218.13,334.67H199.58c-2.65,16,5.86,28.32,9.27,28.32S220.78,350.7,218.13,334.67Z" style="fill:#BA68C8"></path><path d="M208.85,334.67H212a14.13,14.13,0,0,1,1.73,8.56c-.39,4.32-3,9.94-4.91,9.94s-4.51-5.62-4.9-9.94a14,14,0,0,1,1.73-8.56h3.17" style="fill:#fff"></path><path d="M221.15,317.87l-1.49-6.38h-20.8l-1.49,6.38a7.71,7.71,0,0,0,3.47,6.79,11.89,11.89,0,0,0,2.91,1.59,15.61,15.61,0,0,0,11.08,0,12.5,12.5,0,0,0,2.85-1.57A7.71,7.71,0,0,0,221.15,317.87Z" style="fill:#BA68C8"></path><path d="M221.15,317.87l-1.49-6.38h-20.8l-1.49,6.38a7.71,7.71,0,0,0,3.47,6.79,11.89,11.89,0,0,0,2.91,1.59,15.61,15.61,0,0,0,11.08,0,12.5,12.5,0,0,0,2.85-1.57A7.71,7.71,0,0,0,221.15,317.87Z" style="fill:#fff;opacity:0.5"></path><path d="M221.44,319.13l.15.63.64,2.75a8.48,8.48,0,0,1-3.8,7.07,13,13,0,0,1-3.13,1.72,17,17,0,0,1-12,0,13.13,13.13,0,0,1-3.19-1.74,8.49,8.49,0,0,1-3.8-7.1L194.54,330h0c0,2.52,1.44,5,4.31,7a15.87,15.87,0,0,0,3.75,1.81,21.33,21.33,0,0,0,13.38,0,16.2,16.2,0,0,0,3.69-1.8c2.87-1.93,4.31-4.45,4.31-7Z" style="fill:#BA68C8"></path><path d="M221.44,319.13l.15.63.64,2.75a8.48,8.48,0,0,1-3.8,7.07,13,13,0,0,1-3.13,1.72,17,17,0,0,1-12,0,13.13,13.13,0,0,1-3.19-1.74,8.49,8.49,0,0,1-3.8-7.1L194.54,330h0c0,2.52,1.44,5,4.31,7a15.87,15.87,0,0,0,3.75,1.81,21.33,21.33,0,0,0,13.38,0,16.2,16.2,0,0,0,3.69-1.8c2.87-1.93,4.31-4.45,4.31-7Z" style="fill:#fff;opacity:0.5"></path><path d="M221.59,319.76l-.15-.63-.29-1.26a7.71,7.71,0,0,1-3.47,6.79,12.5,12.5,0,0,1-2.85,1.57,15.61,15.61,0,0,1-11.08,0,11.89,11.89,0,0,1-2.91-1.59,7.71,7.71,0,0,1-3.47-6.79l-1.08,4.61a8.49,8.49,0,0,0,3.8,7.1,13.13,13.13,0,0,0,3.19,1.74,17,17,0,0,0,12,0,13,13,0,0,0,3.13-1.72,8.48,8.48,0,0,0,3.8-7.07Z" style="fill:#455a64"></path><path d="M209.24,323.8c9.39,0,12.48-3.48,12.48-3.48l-.13-.56-.15-.63-.29-1.26-1.49-6.38h-20.8l-1.49,6.38-.58,2.46S199.84,323.8,209.24,323.8Z" style="opacity:0.15"></path><path d="M223.4,149.76a11.32,11.32,0,0,0-.34-2.65c-1.82-7.76-7-15.08-9.42-18.8a42.17,42.17,0,0,0-3.49-4.42,1.56,1.56,0,0,0-1.78,0,41.94,41.94,0,0,0-3.31,4.55c-2.3,3.81-8,11.33-9.5,19.16a10.68,10.68,0,0,0-.16,2.65s0,161.41,0,161v.13c0,.08,0,.17,0,.25h0s0,.06,0,.08c.18,1.92,1.53,3.81,4.07,5.28,5.48,3.16,14.35,3.16,19.83,0,2.77-1.6,4.13-3.7,4.1-5.79Z" style="fill:#37474f"></path><path d="M219.69,233.06c-5.69,3.28-14.92,3.28-20.61,0a9,9,0,0,1-3.69-3.64v2.75a9,9,0,0,0,3.69,3.64c5.69,3.28,14.92,3.28,20.61,0a9,9,0,0,0,3.71-3.65v-2.75A9,9,0,0,1,219.69,233.06Z" style="fill:#BA68C8"></path><path d="M219.69,284.05c-5.69,3.29-14.92,3.29-20.61,0a8.84,8.84,0,0,1-3.7-3.66v5.5a8.86,8.86,0,0,0,3.7,3.67c5.69,3.28,14.92,3.28,20.61,0a9,9,0,0,0,3.71-3.65v-5.5A9,9,0,0,1,219.69,284.05Z" style="fill:#BA68C8"></path><path d="M219.69,217.23c-5.69,3.28-14.92,3.28-20.61,0a8.86,8.86,0,0,1-3.68-3.64v2.75a8.8,8.8,0,0,0,3.68,3.64c5.69,3.29,14.92,3.29,20.61,0a9,9,0,0,0,3.71-3.65v-2.75A9,9,0,0,1,219.69,217.23Z" style="fill:#BA68C8"></path><path d="M219.69,163.61c-5.69,3.28-14.92,3.28-20.61,0A9,9,0,0,1,195.4,160v5.51a9,9,0,0,0,3.68,3.62c5.69,3.29,14.92,3.29,20.61,0a9,9,0,0,0,3.71-3.65V160A9,9,0,0,1,219.69,163.61Z" style="fill:#BA68C8"></path><path d="M217.3,134a5.09,5.09,0,0,1-2.06,2,13,13,0,0,1-11.7,0,5.1,5.1,0,0,1-2-2c1.4-2.25,2.71-4.16,3.57-5.56a39.76,39.76,0,0,1,3.3-4.55,1.48,1.48,0,0,1,.88-.3,1.61,1.61,0,0,1,.9.26,42,42,0,0,1,3.48,4.41C214.58,129.73,215.92,131.69,217.3,134Z" style="fill:#BA68C8"></path><path d="M219.3,317.06c2.77-1.6,4.13-3.7,4.1-5.79V149.75a11.31,11.31,0,0,0-.34-2.64c-1.82-7.76-7-15.08-9.42-18.8a43.53,43.53,0,0,0-3.49-4.42,1.58,1.58,0,0,0-.89-.26c1.43.08,5.2,21.7,5.2,30.23v165A17.16,17.16,0,0,0,219.3,317.06Z" style="opacity:0.30000000000000004"></path><path d="M303.52,250.48l-17.11-15.3c-1.81-1.62-3.09-4.29-3.69-7.69-.57-3.22-1.32-7.62-2.05-12.26-1.84-11.6-3.75-24.71-4.5-24.27,0,0-2.35-2-2.89-1.66v96.45l2.89,1.66L304.58,271V253.68A4.27,4.27,0,0,0,303.52,250.48Z" style="fill:#263238"></path><path d="M276.17,191c.75-.44,2.66,12.67,4.5,24.27.73,4.64,1.48,9,2.05,12.26.6,3.4,1.88,6.07,3.69,7.69l17.11,15.3a4.27,4.27,0,0,1,1.06,3.2V271l-28.41,16.4Z" style="fill:#37474f"></path><path d="M276.17,214.84l1.66-1c.64-.37,1.19,0,1.34.86l2.47,14.6.66,3.93c.69,4.09,2.19,7.32,4.32,9.33l14.05,13.21a5.23,5.23,0,0,1,1.24,3.81v6.95l-25.74,14.87Z" style="fill:#BA68C8"></path><path d="M276.17,214.84l1.66-1c.64-.37,1.19,0,1.34.86l2.47,14.6.66,3.93c.69,4.09,2.19,7.32,4.32,9.33l14.05,13.21a5.23,5.23,0,0,1,1.24,3.81v6.95l-25.74,14.87Z" style="fill:#fff;opacity:0.5"></path><path d="M277.83,213.88c.64-.37,1.19,0,1.34.86l2.47,14.6.66,3.93c.69,4.09,2.19,7.32,4.32,9.33l14.05,13.21a5.23,5.23,0,0,1,1.24,3.81v6.95l-2.66,1.54v-6.95a1.88,1.88,0,0,0-.44-1.36l-14.05-13.21c-2.5-2.34-4.24-6.1-5.05-10.88l-2.89-17.15-.65.38v-4.1Z" style="fill:#fff;opacity:0.5"></path><path d="M251.19,202.47c-.76.44-2.67,15.75-4.51,29.47-.73,5.49-1.48,10.75-2.05,14.63a41.41,41.41,0,0,1-3.69,12l-17.11,35.05a10.4,10.4,0,0,0-1.06,4.43v17.32l2.88,1.66,28.42-16.4V204.14Z" style="fill:#455a64"></path><path d="M254.07,204.14c-.76.44-2.67,15.74-4.51,29.46-.73,5.5-1.48,10.76-2.05,14.63a41.32,41.32,0,0,1-3.69,12l-17.11,35.06a10.32,10.32,0,0,0-1.06,4.42V317l28.42-16.4Z" style="fill:#37474f"></path><path d="M254.07,228l-1.67,1a3.45,3.45,0,0,0-1.34,2.4l-2.46,17.45-.67,4.7a50.1,50.1,0,0,1-4.32,14.32l-14.05,29.43a12.53,12.53,0,0,0-1.24,5.24v7l25.75-14.86Z" style="fill:#BA68C8"></path><path d="M254.07,228l-1.67,1a3.45,3.45,0,0,0-1.34,2.4l-2.46,17.45-.67,4.7a50.1,50.1,0,0,1-4.32,14.32l-14.05,29.43a12.53,12.53,0,0,0-1.24,5.24v7l25.75-14.86Z" style="fill:#fff;opacity:0.5"></path><path d="M252.4,229a3.45,3.45,0,0,0-1.34,2.4l-2.46,17.45-.67,4.7a50.1,50.1,0,0,1-4.32,14.32l-14.05,29.43a12.53,12.53,0,0,0-1.24,5.24v7l2.66-1.53V301a4.45,4.45,0,0,1,.44-1.87l14.06-29.43a58.35,58.35,0,0,0,5-16.71l2.89-20.49.66-.38V228Z" style="fill:#fff;opacity:0.5"></path><path d="M286,199.79a18.26,18.26,0,0,0-.37-4.49,94.85,94.85,0,0,0-12.83-31.09c-.83-1.28-2.63-4.2-3.37-4.71a2.73,2.73,0,0,0-3.06,0c-.73.51-2.5,3.45-3.36,4.71a94.15,94.15,0,0,0-12.83,31.09,18.26,18.26,0,0,0-.37,4.49l.13,98.82h0c0,3.68,3.37,7.36,10.1,9.36a27.67,27.67,0,0,0,15.72,0c6.74-2,10.11-5.68,10.11-9.36h0Z" style="fill:#BA68C8"></path><path d="M286,199.79a18.26,18.26,0,0,0-.37-4.49,94.85,94.85,0,0,0-12.83-31.09c-.83-1.28-2.63-4.2-3.37-4.71a2.73,2.73,0,0,0-3.06,0c-.73.51-2.5,3.45-3.36,4.71a94.15,94.15,0,0,0-12.83,31.09,18.26,18.26,0,0,0-.37,4.49l.13,98.82h0c0,3.68,3.37,7.36,10.1,9.36a27.67,27.67,0,0,0,15.72,0c6.74-2,10.11-5.68,10.11-9.36h0Z" style="fill:#fff;opacity:0.7000000000000001"></path><path d="M285.84,298.61h0l.13-98.82a18.26,18.26,0,0,0-.37-4.49,94.85,94.85,0,0,0-12.83-31.09l-.69-1.08c3.73,9.5,9.64,24.73,10,46,.23,12.57-.67,71.17-1.44,96.72C284.1,303.87,285.84,301.24,285.84,298.61Z" style="fill:#fff;opacity:0.5"></path><path d="M269.17,159.36a2.73,2.73,0,0,0-1.3-.33,2.69,2.69,0,0,0-1.53.47c-.73.51-2.5,3.45-3.36,4.71a94.15,94.15,0,0,0-12.83,31.09,18.26,18.26,0,0,0-.37,4.49l.13,98.82c0,3.68,3.37,7.36,10.1,9.36l.29.07c-1.35-30.79-6.14-111.94-1.48-126.14C262,172.31,267,158.62,269.17,159.36Z" style="fill:#BA68C8;opacity:0.4"></path><path d="M263,164.21a75.72,75.72,0,0,0-5.24,9.24,16.38,16.38,0,0,0,10.14,3.24A15.83,15.83,0,0,0,278,173.5a92.07,92.07,0,0,0-5.24-9.29h0c-.57-.88-1.6-2.53-2.43-3.65a5.37,5.37,0,0,0-.94-1.06,2.73,2.73,0,0,0-3.06,0,2.73,2.73,0,0,0-.32.3c-.84.92-2.29,3.31-3,4.41Z" style="fill:#455a64"></path><path d="M278,173.5a91,91,0,0,0-5.24-9.29h0l-.12-.19,0-.08c-.1-.14-.2-.29-.3-.46s-.15-.22-.22-.34c1.25,3.17,2.74,7,4.19,11.49C276.91,174.26,277.47,173.88,278,173.5Z" style="fill:#fff;opacity:0.1"></path><path d="M263,164.21a75.72,75.72,0,0,0-5.24,9.24,20.9,20.9,0,0,0,3.31,1.91c2.93-8.25,6.38-16.58,8.12-16h0a3,3,0,0,0-.58-.24h-.07l-.29-.06-.35,0a2.69,2.69,0,0,0-1.53.47,2.73,2.73,0,0,0-.32.3c-.84.92-2.29,3.31-3,4.41Z" style="fill:#37474f"></path><path d="M286,202.57v-2.78a18.26,18.26,0,0,0-.37-4.49c-.34-1.58-.71-3.12-1.12-4.63a10.77,10.77,0,0,1-4.1,3.82,21.61,21.61,0,0,1-6.87,2.42,6.31,6.31,0,0,0-5.36,5.63l0,1.18A4.39,4.39,0,0,0,273,208.5a26.85,26.85,0,0,0,9.29-3.07A15.25,15.25,0,0,0,286,202.57Z" style="fill:#37474f"></path><path d="M286,202.57v-2.78a18.26,18.26,0,0,0-.37-4.49c-.17-.79-.35-1.57-.54-2.35s-.37-1.49-.56-2.22l0-.06a10.47,10.47,0,0,1-3.6,3.52c.52,3.58.91,7.38,1.1,11.42l.34-.18A15.25,15.25,0,0,0,286,202.57Z" style="fill:#fff;opacity:0.2"></path><path d="M276.32,301.36l16.75,13.18,2.37-1.37c.13-4.85-1.45-9.14-5-13.67-1.49-1.93-2.86-3.72-4.09-5.42a59.91,59.91,0,0,1-4.86-7.64c-2-4-2.52-6.47-2.49-9.21a1.29,1.29,0,0,1,0-.28v-.26l-1.26.61Z" style="fill:#455a64"></path><path d="M294.89,308.05a17.91,17.91,0,0,1,.48,2.9L293,312.32v-.08a18.81,18.81,0,0,0-.47-2.8v0Z" style="fill:#BA68C8"></path><path d="M294.89,308.05a17.91,17.91,0,0,1,.48,2.9L293,312.32v-.08a18.81,18.81,0,0,0-.47-2.8v0Z" style="fill:#fff;opacity:0.6000000000000001"></path><path d="M277.79,277.3a25.28,25.28,0,0,0,1.95,10c1.5,4,4.45,8.48,8.38,13.55,3.51,4.52,5.08,8.81,4.95,13.66l-16.75-13.18Z" style="fill:#37474f"></path><path d="M276.56,296.87l16,12.55a18.89,18.89,0,0,1,.49,2.9l-16.58-13Z" style="fill:#BA68C8"></path></g></g></g></svg>